<svg width="254" height="254" viewBox="0 0 254 254" fill="none" xmlns="http://www.w3.org/2000/svg">
<g clip-path="url(#clip0_206_41)">
<path d="M222.55 55.44V39.51H206.67V23.83H174.99V8H79.33V23.72H47.45V39.51C42.13 39.84 37.02 39.29 31.85 39.85C31.45 45.12 32.1 50.23 31.47 55.57H15.93V86.99C10.65 87.75 5.3 86.86 0 87.48V166.98H15.89V182.89H31.8V214.51H47.5L47.41 214.41V230.61H63.6L63.51 230.52V246.42H190.81C190.81 244.86 190.81 243.53 190.81 242.21C190.95 238.31 190.5 234.41 191.06 230.52L190.99 230.6H206.8V215.08C206.84 215.09 206.882 215.089 206.922 215.078C206.961 215.067 206.997 215.046 207.027 215.017C207.056 214.987 207.077 214.951 207.088 214.912C207.099 214.872 207.1 214.83 207.09 214.79L222.71 214.52V182.72H238.59V166.72H254.47V87.26C252.92 87.26 251.59 87.26 250.26 87.26C246.37 87.13 242.47 87.59 238.59 87.02V55.44H222.55Z" fill="#FDFAFA"/>
<path d="M207.05 214.79C207.06 214.83 207.059 214.872 207.048 214.912C207.037 214.951 207.016 214.987 206.987 215.017C206.957 215.046 206.921 215.067 206.882 215.078C206.842 215.089 206.8 215.09 206.76 215.08C201.51 214.08 196.26 214.91 190.95 214.57V230.57L191.05 230.51H63.51L63.6 230.6C63.37 225.34 63.84 220.06 63.34 214.76C57.8 214.4 52.59 214.99 47.41 214.4L47.5 214.5V182.8H63.5V166.8C64.16 166.8 64.83 166.92 65.5 166.92H190.65H190.58C191.19 172.21 190.33 177.55 191.07 183.15H206.36C206.741 184.323 206.858 185.567 206.7 186.79C206.7 194.95 206.7 203.11 206.75 211.27C206.596 212.451 206.698 213.652 207.05 214.79ZM95.42 214.44H111.05V183.04H95.46L95.42 214.44ZM158.72 183.01H143.42V214.51H158.76L158.72 183.01Z" fill="#FDFAFA"/>
<path d="M15.93 86.98V55.56H31.47C32.1 50.22 31.47 45.11 31.85 39.84C37.02 39.28 42.13 39.84 47.45 39.5V23.72H79.33V8H174.99V23.83L174.91 23.93C173.02 23.93 171.13 23.84 169.23 23.84H106.71C102.93 23.84 99.14 23.89 95.35 23.91C90.05 23.5 84.76 23.77 79.18 23.73V39.73H47.54V55.28C42.54 55.94 37.34 54.88 31.97 55.92V87.01H15.97L15.93 86.98Z" fill="#00012F"/>
<path d="M63.53 166.76V182.76H47.53V214.51H31.8V182.91H15.89V166.97H0.0499878V87.51C5.34999 86.89 10.7 87.78 15.98 87.02C15.89 92.38 15.71 97.74 16.08 103.1C15.99 103.98 15.83 104.86 15.82 105.74C15.82 120 15.82 134.26 15.82 148.52C15.82 149.41 15.97 150.29 16.05 151.17C15.96 156.17 15.94 161.25 16.05 166.69H31.68C32.34 166.75 33 166.86 33.68 166.86C43.68 166.86 53.68 166.86 63.68 166.86L63.53 166.76Z" fill="#00012F"/>
<path d="M63.51 230.51H191.05C190.49 234.4 190.94 238.3 190.8 242.2C190.8 243.52 190.8 244.85 190.8 246.41H63.51V230.51Z" fill="#00012F"/>
<path d="M238.59 87.01C242.47 87.58 246.37 87.12 250.26 87.25C251.59 87.3 252.92 87.25 254.47 87.25V166.74H238.59L238.67 166.83C238.67 165.61 238.57 164.38 238.57 163.16V92.59C238.57 90.7 238.64 88.81 238.68 86.91L238.59 87.01Z" fill="#00012F"/>
<path d="M207.05 214.79C206.675 213.619 206.566 212.379 206.73 211.16C206.73 203 206.73 194.84 206.68 186.68C206.838 185.456 206.721 184.213 206.34 183.04H191.05C190.31 177.44 191.17 172.1 190.56 166.81C194.21 166.81 197.86 166.81 201.51 166.75C208.51 166.66 215.44 166.98 222.4 166.57L223.16 166.67C228.31 167.09 233.48 166.78 238.63 166.84L238.55 166.75V182.75H222.71V214.51L207.05 214.79Z" fill="#00012F"/>
<path d="M174.99 23.83H206.67V39.51H222.55V55.44C217.37 55.31 212.17 55.75 206.62 55.09V39.92H175.02C175.02 34.5867 174.987 29.2534 174.92 23.92L174.99 23.83Z" fill="#00012F"/>
<path d="M222.55 55.4399H238.55V87.0099L238.64 86.9099C237.38 87.5799 236.03 87.1899 234.72 87.2599C230.87 87.4499 227 86.9099 223.16 87.5399C223.128 87.4479 223.066 87.3689 222.985 87.3148C222.904 87.2607 222.807 87.2344 222.71 87.2399C222.64 86.0199 222.51 84.7999 222.51 83.5799C222.51 74.2466 222.51 64.8799 222.51 55.4799L222.55 55.4399Z" fill="#00012F"/>
<path d="M47.41 214.38C52.59 214.97 57.8 214.38 63.34 214.74C63.84 220.04 63.34 225.32 63.6 230.58H47.41V214.38Z" fill="#00012F"/>
<path d="M190.99 230.57V214.57C196.3 214.91 201.55 214.07 206.8 215.08V230.57H190.99Z" fill="#00012F"/>
<path d="M222.51 55.51C222.51 64.8834 222.51 74.25 222.51 83.61C222.51 84.83 222.64 86.05 222.71 87.27V88.33L222.48 103.07L206.82 103.36V151.18H222.41V166.6C215.41 167.01 208.48 166.69 201.52 166.78C197.87 166.78 194.22 166.78 190.57 166.84H190.64C190.36 161.76 190.88 156.65 190.33 151.7C188.82 150.85 187.45 151.17 186.15 151.17C151.583 151.17 117.013 151.17 82.44 151.17C81.3367 151.289 80.2209 151.201 79.15 150.91C79.2248 150.581 79.275 150.247 79.3 149.91C79.3 135.17 79.3 120.43 79.3 105.69C79.3709 105.206 79.3055 104.712 79.1112 104.264C78.9169 103.815 78.6013 103.429 78.2 103.15H63.49V87.57H31.82V103.09H16.05C15.68 97.73 15.86 92.37 15.95 87.01H31.95V55.92C37.32 54.92 42.47 55.92 47.52 55.28C48.0687 55.3784 48.6232 55.4419 49.18 55.47C63.92 55.47 78.6633 55.47 93.41 55.47C93.7826 55.4986 94.1562 55.4286 94.4932 55.2671C94.8302 55.1056 95.1188 54.8583 95.33 54.55V23.91C99.12 23.91 102.91 23.85 106.69 23.84H169.21C171.11 23.84 173 23.9 174.89 23.93C174.89 29.2634 174.923 34.5967 174.99 39.93C174.1 39.86 173.21 39.72 172.32 39.72C158.14 39.72 143.957 39.72 129.77 39.72C129.286 39.6394 128.791 39.6685 128.32 39.8052C127.849 39.942 127.415 40.1829 127.05 40.51V55.3C121.61 55.76 116.6 55.13 111.23 55.75C111.23 71.6 111.17 87.26 111.29 103.25H126.86C127.63 108.69 126.68 113.92 127.41 119C134.7 119.71 172.35 119.38 174.82 118.59C175.05 113.59 174.65 108.46 175.09 103.05H190.47V55.42H174.98V39.92H206.58V55.13C212.13 55.79 217.33 55.35 222.51 55.51Z" fill="#F43F5E"/>
<path d="M79.18 150.9C80.2509 151.191 81.3667 151.279 82.47 151.16C117.043 151.16 151.613 151.16 186.18 151.16C187.48 151.16 188.85 150.84 190.36 151.69C190.91 156.69 190.36 161.75 190.67 166.83H65.52C64.86 166.83 64.19 166.75 63.52 166.71L63.6 166.79V150.9H79.18Z" fill="#00012F"/>
<path d="M95.46 214.44V183.04H111.05V214.44H95.46Z" fill="#00012F"/>
<path d="M158.76 183.01V214.51H143.42V183.01H158.76Z" fill="#00012F"/>
<path d="M95.35 23.91V54.57C95.1388 54.8783 94.8502 55.1256 94.5132 55.2871C94.1762 55.4486 93.8026 55.5186 93.43 55.49C78.69 55.49 63.9467 55.49 49.2 55.49C48.6432 55.4618 48.0888 55.3984 47.54 55.3V39.69H79.18V23.69C84.76 23.77 90.05 23.51 95.35 23.91Z" fill="#F7F7F7"/>
<path d="M79.18 150.9H63.61V166.84C53.61 166.84 43.6267 166.84 33.66 166.84C33 166.84 32.34 166.73 31.66 166.67V151.16H16.05C15.97 150.28 15.83 149.4 15.82 148.51C15.82 134.25 15.82 119.99 15.82 105.73C15.82 104.85 15.99 103.97 16.08 103.09H31.82V87.5699H63.49V103.15H78.21C78.6113 103.429 78.9269 103.815 79.1212 104.264C79.3155 104.712 79.3809 105.206 79.31 105.69C79.31 120.43 79.31 135.17 79.31 149.91C79.2911 150.243 79.2476 150.574 79.18 150.9Z" fill="#FDFAFA"/>
<path d="M16.05 151.16H31.68V166.68H16.05C15.92 161.24 15.94 156.2 16.05 151.16Z" fill="#F43F5E"/>
<path d="M222.51 103.04L222.74 88.3C222.885 88.2352 223.007 88.1277 223.089 87.9919C223.171 87.8561 223.21 87.6985 223.2 87.54C227.04 86.91 230.91 87.45 234.76 87.26C236.07 87.19 237.42 87.58 238.68 86.91C238.68 88.81 238.57 90.7 238.57 92.59V163.17C238.57 164.39 238.64 165.62 238.67 166.84C233.52 166.78 228.35 167.09 223.2 166.67V150.03H211.55C207.85 150.03 207.78 149.96 207.78 146.32C207.78 133.5 207.78 120.68 207.78 107.86V104.79C211.672 104.423 215.583 104.303 219.49 104.43C220.7 104.42 222.05 104.6 222.51 103.04ZM209.9 107.16C209.29 107.42 208.76 107.59 208.79 108.1C209.54 118.22 208.91 128.34 209.11 138.46C209.11 140.13 209.11 141.8 209.11 143.46C209.11 145.12 209.72 146.16 211.22 146.46C211.74 146.14 211.87 145.65 211.7 145.46C210.27 144.07 210.44 142.32 210.44 140.56C210.44 130.56 210.44 120.53 210.44 110.47C210.43 109.51 210.82 108.35 209.9 107.16Z" fill="#FDFAFA"/>
<path d="M222.51 103.04C222 104.6 220.7 104.42 219.51 104.43C215.603 104.303 211.692 104.423 207.8 104.79V107.86C207.8 120.68 207.8 133.5 207.8 146.32C207.8 149.96 207.87 150.02 211.57 150.03H223.22V166.67L222.46 166.57V151.15H206.85V103.33L222.51 103.04Z" fill="#F7F7F7"/>
<path d="M223.2 87.51C223.21 87.6684 223.171 87.8261 223.089 87.9619C223.007 88.0977 222.885 88.2052 222.74 88.27V87.21C222.839 87.2022 222.938 87.2274 223.021 87.2817C223.104 87.336 223.167 87.4162 223.2 87.51Z" fill="#F7F7F7"/>
<path d="M174.98 39.92V55.42H190.51V103.05H175.13C174.69 108.46 175.13 113.56 174.86 118.59C172.39 119.38 134.74 119.71 127.45 119C126.72 113.92 127.67 108.69 126.9 103.25H111.33C111.21 87.25 111.33 71.6 111.27 55.75C116.64 55.13 121.65 55.75 127.09 55.3V40.51C127.454 40.1874 127.885 39.95 128.352 39.8151C128.819 39.6802 129.31 39.6511 129.79 39.73C143.977 39.73 158.16 39.73 172.34 39.73C173.23 39.73 174.12 39.87 175.01 39.94L174.98 39.92Z" fill="#FDFAFA"/>
<path d="M209.9 107.16C210.82 108.35 210.43 109.5 210.43 110.55C210.47 120.55 210.47 130.58 210.43 140.64C210.43 142.4 210.26 144.15 211.69 145.54C211.86 145.7 211.69 146.19 211.21 146.54C209.71 146.2 209.08 145.12 209.1 143.54C209.12 141.96 209.1 140.2 209.1 138.54C208.9 128.42 209.53 118.3 208.78 108.18C208.76 107.59 209.29 107.42 209.9 107.16Z" fill="#F7F7F7"/>
</g>
<defs>
<clipPath id="clip0_206_41">
<rect width="254" height="254" fill="white"/>
</clipPath>
</defs>
</svg>
