<svg xmlns="http://www.w3.org/2000/svg" style="isolation:isolate" viewBox="0 0 854 161"><defs><clipPath id="a"><path d="M0 0h854v161H0z"/></clipPath></defs><g clip-path="url(#a)"><mask id="b" x="-200%" y="-200%" width="400%" height="400%"><rect x="-200%" y="-200%" width="400%" height="400%" fill="#fff"/><path d="M4 154.5h846v3.5H4v-3.5zm0-57.7h846v3.5H4v-3.5zm262.5-49.05H254V4h37.5v6.25h6.25V29h-12.5v6.25h6.25v6.25h6.25v6.25H279V41.5h-6.25v-6.25h-6.25v12.5zm0-37.5V29H279v-6.25h6.25v-12.5H266.5zm50 37.5H304V16.5h6.25v-6.25h6.25V4h18.75v6.25h6.25v6.25h6.25v31.25h-12.5v-12.5H316.5v12.5zm0-31.25V29h18.75V16.5H329v-6.25h-6.25v6.25h-6.25zm50 31.25H354V4h12.5v6.25h6.25v6.25H379v6.25h6.25V4h12.5v43.75h-12.5v-12.5H379V29h-6.25v-6.25h-6.25v25zm50 0H404V4h12.5v18.75h6.25V16.5H429v-6.25h6.25V4h12.5v6.25h-6.25v6.25h-6.25v6.25H429V29h6.25v6.25h6.25v6.25h6.25v6.25H429V41.5h-6.25v-6.25h-6.25v12.5zm81.25 0h-37.5V41.5h12.5V10.25h-12.5V4h37.5v6.25h-12.5V41.5h12.5v6.25zm18.75 0H504V4h12.5v6.25h6.25v6.25H529v6.25h6.25V4h12.5v43.75h-12.5v-12.5H529V29h-6.25v-6.25h-6.25v25zm81.25 0H566.5V41.5h-6.25v-6.25H554V16.5h6.25v-6.25h6.25V4h31.25v6.25h-25v6.25h-6.25v18.75h6.25v6.25h12.5V29H579v-6.25h18.75v25zM551 139h-20v-4h16v-4h-12v-4h-4v-8h4v-4h20v4h-16v4h12v4h4v8h-4v4zm32 0h-24v-24h24v4h-16v4h12v4h-12v8h16v4zm8 0h-4v-24h4v4h4v4h4v-4h4v-4h8v24h-8v-12h-4v4h-4v-4h-4v12zm32-16h-4v-4h4v4zm-4 16h-4v-16h4v8h12v-8h-4v-4h-4v-4h8v4h4v4h4v16h-8v-4h-12v4zm28 0h-4v-24h8v4h4v4h4v4h4v-12h4v24h-8v-4h-4v-4h-4v-4h-4v12zm32-16h-4v-4h4v4zm-4 16h-4v-16h4v8h12v-8h-4v-4h-4v-4h8v4h4v4h4v16h-8v-4h-12v4zm-288 0h-20v-4h-4v-16h4v-4h20v4h-16v16h16v4zm24 0h-16v-4h-4v-20h8v20h12v4zm4-4h-4v-20h4v20zm28-8h-4v-8h4v8zm-16 12h-8v-24h20v4h-12v8h12v4h-12v8zm-196-16h-4v-4h4v4zm-4 16h-4v-16h4v8h12v-8h-4v-4h-4v-4h8v4h4v4h4v16h-8v-4h-12v4zm48 0h-20v-4h-4v-16h4v-4h20v4h-16v16h16v4zm8-12h-4v-4h4v4zm4-4h-4v-8h4v8zm40 16h-20v-4h16v-4h-12v-4h-4v-8h4v-4h20v4h-16v4h12v4h4v8h-4v4zm-162 0h-10v-2h-2v-8h2v-2h10v2h-8v8h8v2zm14 0h-10v-2h-2v-8h2v-2h10v2h-8v8h8v2zm-90 0H73v-4h4v-16h-4v-4h12v20h4v4zm28 0h-16v-4h-4v-4h8v4h8v-8H97v-12h20v4h-12v4h12v4h4v8h-4v4zm16-4h8v-16h-8v16zm12 4h-16v-4h-4v-16h4v-4h16v4h4v16h-4v4z" fill-rule="evenodd"/></mask><path d="M4 154.5h846v3.5H4v-3.5zm0-57.7h846v3.5H4v-3.5zm262.5-49.05H254V4h37.5v6.25h6.25V29h-12.5v6.25h6.25v6.25h6.25v6.25H279V41.5h-6.25v-6.25h-6.25v12.5zm0-37.5V29H279v-6.25h6.25v-12.5H266.5zm50 37.5H304V16.5h6.25v-6.25h6.25V4h18.75v6.25h6.25v6.25h6.25v31.25h-12.5v-12.5H316.5v12.5zm0-31.25V29h18.75V16.5H329v-6.25h-6.25v6.25h-6.25zm50 31.25H354V4h12.5v6.25h6.25v6.25H379v6.25h6.25V4h12.5v43.75h-12.5v-12.5H379V29h-6.25v-6.25h-6.25v25zm50 0H404V4h12.5v18.75h6.25V16.5H429v-6.25h6.25V4h12.5v6.25h-6.25v6.25h-6.25v6.25H429V29h6.25v6.25h6.25v6.25h6.25v6.25H429V41.5h-6.25v-6.25h-6.25v12.5zm81.25 0h-37.5V41.5h12.5V10.25h-12.5V4h37.5v6.25h-12.5V41.5h12.5v6.25zm18.75 0H504V4h12.5v6.25h6.25v6.25H529v6.25h6.25V4h12.5v43.75h-12.5v-12.5H529V29h-6.25v-6.25h-6.25v25zm81.25 0H566.5V41.5h-6.25v-6.25H554V16.5h6.25v-6.25h6.25V4h31.25v6.25h-25v6.25h-6.25v18.75h6.25v6.25h12.5V29H579v-6.25h18.75v25zM551 139h-20v-4h16v-4h-12v-4h-4v-8h4v-4h20v4h-16v4h12v4h4v8h-4v4zm32 0h-24v-24h24v4h-16v4h12v4h-12v8h16v4zm8 0h-4v-24h4v4h4v4h4v-4h4v-4h8v24h-8v-12h-4v4h-4v-4h-4v12zm32-16h-4v-4h4v4zm-4 16h-4v-16h4v8h12v-8h-4v-4h-4v-4h8v4h4v4h4v16h-8v-4h-12v4zm28 0h-4v-24h8v4h4v4h4v4h4v-12h4v24h-8v-4h-4v-4h-4v-4h-4v12zm32-16h-4v-4h4v4zm-4 16h-4v-16h4v8h12v-8h-4v-4h-4v-4h8v4h4v4h4v16h-8v-4h-12v4zm-288 0h-20v-4h-4v-16h4v-4h20v4h-16v16h16v4zm24 0h-16v-4h-4v-20h8v20h12v4zm4-4h-4v-20h4v20zm28-8h-4v-8h4v8zm-16 12h-8v-24h20v4h-12v8h12v4h-12v8zm-196-16h-4v-4h4v4zm-4 16h-4v-16h4v8h12v-8h-4v-4h-4v-4h8v4h4v4h4v16h-8v-4h-12v4zm48 0h-20v-4h-4v-16h4v-4h20v4h-16v16h16v4zm8-12h-4v-4h4v4zm4-4h-4v-8h4v8zm40 16h-20v-4h16v-4h-12v-4h-4v-8h4v-4h20v4h-16v4h12v4h4v8h-4v4zm-162 0h-10v-2h-2v-8h2v-2h10v2h-8v8h8v2zm14 0h-10v-2h-2v-8h2v-2h10v2h-8v8h8v2zm-90 0H73v-4h4v-16h-4v-4h12v20h4v4zm28 0h-16v-4h-4v-4h8v4h8v-8H97v-12h20v4h-12v4h12v4h4v8h-4v4zm16-4h8v-16h-8v16zm12 4h-16v-4h-4v-16h4v-4h16v4h4v16h-4v4z" fill-rule="evenodd" fill="#FFF" mask="url(#b)" vector-effect="non-scaling-stroke" stroke-width="8" stroke="#006DE4" stroke-linejoin="round" stroke-linecap="square" stroke-miterlimit="3"/><path d="M4 154.5h846v3.5H4v-3.5zm0-57.7h846v3.5H4v-3.5zm262.5-49.05H254V4h37.5v6.25h6.25V29h-12.5v6.25h6.25v6.25h6.25v6.25H279V41.5h-6.25v-6.25h-6.25v12.5zm0-37.5V29H279v-6.25h6.25v-12.5H266.5zm50 37.5H304V16.5h6.25v-6.25h6.25V4h18.75v6.25h6.25v6.25h6.25v31.25h-12.5v-12.5H316.5v12.5zm0-31.25V29h18.75V16.5H329v-6.25h-6.25v6.25h-6.25zm50 31.25H354V4h12.5v6.25h6.25v6.25H379v6.25h6.25V4h12.5v43.75h-12.5v-12.5H379V29h-6.25v-6.25h-6.25v25zm50 0H404V4h12.5v18.75h6.25V16.5H429v-6.25h6.25V4h12.5v6.25h-6.25v6.25h-6.25v6.25H429V29h6.25v6.25h6.25v6.25h6.25v6.25H429V41.5h-6.25v-6.25h-6.25v12.5zm81.25 0h-37.5V41.5h12.5V10.25h-12.5V4h37.5v6.25h-12.5V41.5h12.5v6.25zm18.75 0H504V4h12.5v6.25h6.25v6.25H529v6.25h6.25V4h12.5v43.75h-12.5v-12.5H529V29h-6.25v-6.25h-6.25v25zm81.25 0H566.5V41.5h-6.25v-6.25H554V16.5h6.25v-6.25h6.25V4h31.25v6.25h-25v6.25h-6.25v18.75h6.25v6.25h12.5V29H579v-6.25h18.75v25zM551 139h-20v-4h16v-4h-12v-4h-4v-8h4v-4h20v4h-16v4h12v4h4v8h-4v4zm32 0h-24v-24h24v4h-16v4h12v4h-12v8h16v4zm8 0h-4v-24h4v4h4v4h4v-4h4v-4h8v24h-8v-12h-4v4h-4v-4h-4v12zm32-16h-4v-4h4v4zm-4 16h-4v-16h4v8h12v-8h-4v-4h-4v-4h8v4h4v4h4v16h-8v-4h-12v4zm28 0h-4v-24h8v4h4v4h4v4h4v-12h4v24h-8v-4h-4v-4h-4v-4h-4v12zm32-16h-4v-4h4v4zm-4 16h-4v-16h4v8h12v-8h-4v-4h-4v-4h8v4h4v4h4v16h-8v-4h-12v4zm-288 0h-20v-4h-4v-16h4v-4h20v4h-16v16h16v4zm24 0h-16v-4h-4v-20h8v20h12v4zm4-4h-4v-20h4v20zm28-8h-4v-8h4v8zm-16 12h-8v-24h20v4h-12v8h12v4h-12v8zm-196-16h-4v-4h4v4zm-4 16h-4v-16h4v8h12v-8h-4v-4h-4v-4h8v4h4v4h4v16h-8v-4h-12v4zm48 0h-20v-4h-4v-16h4v-4h20v4h-16v16h16v4zm8-12h-4v-4h4v4zm4-4h-4v-8h4v8zm40 16h-20v-4h16v-4h-12v-4h-4v-8h4v-4h20v4h-16v4h12v4h4v8h-4v4zm-162 0h-10v-2h-2v-8h2v-2h10v2h-8v8h8v2zm14 0h-10v-2h-2v-8h2v-2h10v2h-8v8h8v2zm-90 0H73v-4h4v-16h-4v-4h12v20h4v4zm28 0h-16v-4h-4v-4h8v4h8v-8H97v-12h20v4h-12v4h12v4h4v8h-4v4zm16-4h8v-16h-8v16zm12 4h-16v-4h-4v-16h4v-4h16v4h4v16h-4v4z" fill-rule="evenodd" fill="#FFF"/></g></svg>