<svg xmlns="http://www.w3.org/2000/svg" width="16" height="16" fill="none" viewBox="0 0 16 16"><path fill="#000" d="M8 .5h1Zm-1 1h1Zm2 0h1Zm-3 1h1Zm4 0h1Zm-4 1h1Zm4 0h1Zm-5 1h1Zm6 0h1Zm-6 1h1Zm6 0h1Zm-6 1h1Zm2 0h1Zm2 0h1Zm2 0h1Zm-8 1h2Zm4 0h1Zm2 0h1Zm3 0h1Zm-11 1h2Zm6 0h1Zm2 0h1Zm4 0h2Zm-13 1h1Zm15 0h1Zm-14 1h1Zm4 0h1Zm5 0h1Zm4 0h1Zm-12 1h3Zm7 0h5Zm-6 1h1Zm5 0h1Zm-4 1h1Zm3 0h1Zm-2 1h2Z"/><path stroke="#2C2B2C" d="M8 .5h1m-2 1h1m1 0h1m-4 1h1m3 0h1m-5 1h1m3 0h1m-6 1h1m5 0h1m-7 1h1m5 0h1m-7 1h1m1 0h1m1 0h1m1 0h1m-9 1h2m2 0h1m1 0h1m2 0h1m-12 1h2m4 0h1m1 0h1m3 0h2m-15 1h1m14 0h1m-15 1h1m3 0h1m4 0h1m3 0h1m-13 1h3m4 0h5m-11 1h1m4 0h1m-5 1h1m2 0h1m-3 1h2"/><path fill="#000" d="M8 1.5h1Zm1 1h1Zm0 1h1Zm1 1h1Zm0 1h1Zm0 1h1Zm1 1h1Zm1 1h1Zm-11 1h1Zm4 0h1Zm5 0h1Zm4 0h1Zm-12 1h3Zm7 0h1Zm2 0h3Zm-6 1h1Zm3 0h1Zm-4 1h1Zm3 0h1Zm-2 1h2Z"/><path stroke="gold" d="M8 1.5h1m0 1h1m-1 1h1m0 1h1m-1 1h1m-1 1h1m0 1h1m0 1h1m-12 1h1m3 0h1m4 0h1m3 0h1m-13 1h3m4 0h1m1 0h3m-9 1h1m2 0h1m-5 1h1m2 0h1m-3 1h2"/><path fill="#000" d="M7 2.5h2Zm0 1h2Zm-1 1h4Zm0 1h4Zm0 1h1Zm2 0h1Zm-3 1h2Zm3 0h1Zm2 0h1Zm-7 1h4Zm5 0h1Zm2 0h2Zm-8 1h3Zm4 0h4Zm5 0h3Zm-5 1h3Zm0 1h2Zm-1 1h2Z"/><path stroke="#FF0" d="M7 2.5h2m-2 1h2m-3 1h4m-4 1h4m-4 1h1m1 0h1m-4 1h2m1 0h1m1 0h1m-8 1h4m1 0h1m1 0h2m-10 1h3m1 0h4m1 0h3m-8 1h3m-3 1h2m-3 1h2"/></svg>