<svg xmlns="http://www.w3.org/2000/svg" width="32" height="16" fill="none" viewBox="0 0 32 16"><path fill="#EF4444" d="M0 11V5h1.143V3h1.143V2h1.143V1h2.285V0h4.572v1h2.285v1h1.143v1h1.143v2H16v6h-1.143v2h-1.143v1h-1.143v1h-2.285v1H5.714v-1H3.43v-1H2.286v-1H1.143v-2H0Z"/><path fill="#F59E0B" d="M1 5h1.167V4h1.166V3H4.5V2h2.333V1h2.334v1h3.5v1h1.166v2H15v6h-1.167v2h-1.166v1h-2.334v1H5.667v-1H3.333v-1H2.167v-2H1V5Z"/><path fill="#F8F800" d="M2 10.571V5.43h1V4.57h1v-.857h1v-.857h2V2h2v.857h3v.857h1V5.43h1v5.142h-1v1.715h-1v.857h-2V14H6v-.857H4v-.857H3V10.57H2Z"/><path fill="#FEF9C3" d="M5 10.143V5.857h.5v-.714H6v-.714h.5v-.715h1V3h1v.714H10v.715h.5v1.428h.5v4.286h-.5v1.428H10v.715H9V13H7v-.714H6v-.715h-.5v-1.428H5Z"/><path fill="#EF4444" d="M5 9V8h1v2H4V9h1ZM11 9V8h-1v2h2V9h-1ZM6 10h1v1H6zM10 10H9v1h1zM7 11h1v1H7zM9 11H8v1h1zM6 7V4h1v3H6ZM9 7V4h1v3H9Z"/><path fill="#FDE047" d="M19 0v2h1v1h1v2h1v3h-1v1h-2v1h-3v2h1v1h1v1h1v1h2v1h4v-1h2v-1h1v-1h1v-1h1v-2h1V6h-1V4h-1V3h-1V2h-1V1h-2V0h-6Z"/><path fill="#000" d="M20 1v1h-1V0h6v1h-5ZM25 1h2v1h-2zM27 2h1v1h-1zM28 3h1v1h-1zM29 4h1v2h-1zM30 6h1v4h-1zM29 10h1v2h-1zM28 12h1v1h-1zM27 13h1v1h-1zM25 14h2v1h-2zM21 15h4v1h-4zM19 14h2v1h-2zM18 13h1v1h-1zM17 12h1v1h-1zM16 12h1v-1h2v-1h-3v2ZM19 9h2v1h-2zM21 8h1v1h-1zM22 5h1v3h-1zM21 3h1v2h-1zM20 2h1v1h-1z"/><path fill="#00012F" d="M24 5h1v3h-1zM26 5h1v3h-1zM22 9h1v2h-1zM23 11h3v1h-3zM26 10h1v1h-1zM27 9h1v1h-1z"/></svg>