<svg xmlns="http://www.w3.org/2000/svg" id="mario" width="32" height="32" fill="none" viewBox="0 0 32 32"><g id="frame-12"><path fill="#000" d="M14 1.5h4Zm-2 1h2Zm6 0h2Zm-8 1h2Zm10 0h2Zm-11 1h1Zm13 0h1Zm-14 1h1Zm15 0h1Zm-15 1h1Zm3 0h10Zm12 0h1Zm-15 1h1Zm2 0h1Zm11 0h1Zm2 0h1Zm-15 1h2Zm3 0h10Zm11 0h2Zm-15 1h1Zm2 0h3Zm5 0h1Zm3 0h1Zm3 0h3Zm4 0h1Zm-18 1h1Zm4 0h1Zm4 0h1Zm3 0h1Zm4 0h1Zm4 0h1Zm-19 1h1Zm4 0h1Zm11 0h1Zm4 0h1Zm-18 1h1Zm6 0h1Zm5 0h1Zm6 0h1Zm-16 1h2Zm3 0h3Zm7 0h3Zm4 0h2Zm-13 1h1Zm3 0h8Zm10 0h1Zm-12 1h1Zm4 0h4Zm7 0h1Zm-12 1h1Zm3 0h1Zm7 0h1Zm3 0h1Zm-14 1h1Zm5 0h6Zm10 0h1Zm-15 1h1Zm15 0h1Zm-15 1h1Zm6 0h4Zm9 0h1Zm-14 1h2Zm4 0h1Zm2 0h2Zm3 0h1Zm3 0h2Zm-18 1h5Zm6 0h1Zm2 0h2Zm3 0h4Zm5 0h2Zm3 0h1Zm2 0h5Zm-22 1h1Zm6 0h1Zm7 0h2Zm8 0h1Zm6 0h1Zm-27 1h1Zm6 0h1Zm7 0h2Zm8 0h1Zm6 0h1Zm-27 1h7Zm13 0h2Zm8 0h7Zm-21 1h2Zm6 0h1Zm7 0h2Zm8 0h1Zm5 0h2Zm-26 1h2Zm6 0h2Zm7 0h2Zm7 0h2Zm6 0h2Zm-26 1h2Zm6 0h1Zm7 0h2Zm8 0h1Zm5 0h2Zm-25 1h6Zm8 0h1Zm4 0h2Zm5 0h1Zm3 0h6Zm-20 1h6Zm20 0h6Zm-19 1h4Zm6 0h12Zm14 0h4Z"/><path stroke="#002929" d="M14 1.5h4m-6 1h2m4 0h2m-10 1h2m8 0h2m-13 1h1m12 0h1m-15 1h1m14 0h1m-16 1h1m2 0h10m2 0h1m-16 1h1m1 0h1m10 0h1m1 0h1m-16 1h2m1 0h10m1 0h2m-17 1h1m1 0h3m2 0h1m2 0h1m2 0h3m1 0h1m-19 1h1m3 0h1m3 0h1m2 0h1m3 0h1m3 0h1m-20 1h1m3 0h1m10 0h1m3 0h1m-19 1h1m5 0h1m4 0h1m5 0h1m-17 1h2m1 0h3m4 0h3m1 0h2m-15 1h1m2 0h8m2 0h1m-13 1h1m3 0h4m3 0h1m-13 1h1m2 0h1m6 0h1m2 0h1m-15 1h1m4 0h6m4 0h1m-16 1h1m14 0h1m-16 1h1m5 0h4m5 0h1m-15 1h2m2 0h1m1 0h2m1 0h1m2 0h2m-20 1h5m1 0h1m1 0h2m1 0h4m1 0h2m1 0h1m1 0h5m-27 1h1m5 0h1m6 0h2m6 0h1m5 0h1m-28 1h1m5 0h1m6 0h2m6 0h1m5 0h1m-28 1h7m6 0h2m6 0h7m-28 1h2m4 0h1m6 0h2m6 0h1m4 0h2m-28 1h2m4 0h2m5 0h2m5 0h2m4 0h2m-28 1h2m4 0h1m6 0h2m6 0h1m4 0h2m-27 1h6m2 0h1m3 0h2m3 0h1m2 0h6m-26 1h6m14 0h6m-25 1h4m2 0h12m2 0h4"/><path fill="#000" d="M14 2.5h4Zm-2 1h8Zm-2 1h4Zm8 0h4Zm-9 1h2Zm12 0h2Zm-12 1h1Zm13 0h1Zm-11 1h10Zm-1 9h1Zm11 0h1Zm-12 1h2Zm12 0h2Zm-12 1h1Zm5 0h4Zm8 0h1Zm-13 10h1Zm13 0h1Zm-12 1h12Z"/><path stroke="red" d="M14 2.5h4m-6 1h8m-10 1h4m4 0h4m-13 1h2m10 0h2m-14 1h1m12 0h1m-12 1h10m-11 9h1m10 0h1m-13 1h2m10 0h2m-14 1h1m4 0h4m4 0h1m-14 10h1m12 0h1m-13 1h12"/><path fill="#000" d="M14 4.5h1Zm3 0h1Zm-6 1h3Zm7 0h3Zm-8 1h1Zm11 0h1Zm-12 1h1Zm13 0h1Zm-12 1h1Zm11 0h1Zm-11 10h1Zm11 0h1Zm-12 1h1Zm13 0h1Zm-8 1h1Zm3 0h1Zm-8 7h1Zm13 0h1Z"/><path stroke="#A50000" d="M14 4.5h1m2 0h1m-7 1h3m4 0h3m-11 1h1m10 0h1m-13 1h1m12 0h1m-13 1h1m10 0h1m-12 10h1m10 0h1m-13 1h1m12 0h1m-9 1h1m2 0h1m-9 7h1m12 0h1"/><path fill="#000" d="M15 4.5h2Zm-1 1h4Zm-1 4h1Zm5 0h1Zm-5 1h1Zm5 0h1Zm-5 1h2Zm4 0h2Zm-6 7h3Zm7 0h3Zm-7 1h3Zm7 0h3Z"/><path stroke="#fff" d="M15 4.5h2m-3 1h4m-5 4h1m4 0h1m-6 1h1m4 0h1m-6 1h2m2 0h2m-8 7h3m4 0h3m-10 1h3m4 0h3"/><path fill="#000" d="M8 9.5h1Zm4 0h1Zm3 0h2Zm4 0h1Zm4 0h1Zm-16 1h3Zm4 0h2Zm4 0h2Zm4 0h2Zm3 0h3Zm-14 1h2Zm3 0h2Zm4 0h2Zm4 0h2Zm3 0h2Zm-12 1h3Zm4 0h4Zm5 0h3Zm-9 1h1Zm11 0h1Zm-10 1h1Zm9 0h1Zm-7 1h1Zm5 0h1Z"/><path stroke="#E7AD8C" d="M8 9.5h1m3 0h1m2 0h2m2 0h1m3 0h1m-17 1h3m1 0h2m2 0h2m2 0h2m1 0h3m-17 1h2m1 0h2m2 0h2m2 0h2m1 0h2m-14 1h3m1 0h4m1 0h3m-12 1h1m10 0h1m-11 1h1m8 0h1m-8 1h1m4 0h1"/><path fill="#000" d="M7 11.5h1Zm17 0h1Zm-16 1h2Zm14 0h2Zm-8 1h4Zm-4 1h1Zm11 0h1Zm-10 1h2Zm8 0h2Zm-6 1h6Z"/><path stroke="#AD7B5A" d="M7 11.5h1m16 0h1m-17 1h2m12 0h2m-10 1h4m-8 1h1m10 0h1m-11 1h2m6 0h2m-8 1h6"/><path fill="#000" d="M11 16.5h1Zm9 0h1Zm-9 1h2Zm8 0h2Zm-9 4h1Zm11 0h1Zm-12 1h1Zm13 0h1Z"/><path stroke="#0084FF" d="M11 16.5h1m8 0h1m-10 1h2m6 0h2m-11 4h1m10 0h1m-13 1h1m12 0h1"/><path fill="#000" d="M10 19.5h1Zm11 0h1Zm-10 1h2Zm8 0h2Zm-9 6h5Zm7 0h5Zm-7 1h1Zm11 0h1Zm-11 1h1Zm11 0h1Z"/><path stroke="#CEEFEF" d="M10 19.5h1m10 0h1m-11 1h2m6 0h2m-11 6h5m2 0h5m-12 1h1m10 0h1m-12 1h1m10 0h1"/><path fill="#000" d="M13 21.5h1Zm5 0h1Zm-8 1h1Zm4 0h1Zm3 0h1Zm4 0h1Zm-12 1h1Zm13 0h1Zm-13 1h1Zm13 0h1Zm-13 1h1Zm13 0h1Z"/><path stroke="#0000E7" d="M13 21.5h1m4 0h1m-9 1h1m3 0h1m2 0h1m3 0h1m-13 1h1m12 0h1m-14 1h1m12 0h1m-14 1h1m12 0h1"/><path fill="#000" d="M3 22.5h5Zm21 0h5Zm-20 4h4Zm20 0h4Z"/><path stroke="#4A6B6B" d="M3 22.5h5m16 0h5m-25 4h4m16 0h4"/><path fill="#000" d="M11 22.5h3Zm7 0h3Zm-8 1h1Zm4 0h1Zm3 0h1Zm4 0h1Z"/><path stroke="#DE9C21" d="M11 22.5h3m4 0h3m-11 1h1m3 0h1m2 0h1m3 0h1"/><path fill="#000" d="M3 23.5h5Zm21 0h5Zm-20 2h4Zm20 0h4Zm-20 2h4Zm20 0h4Z"/><path stroke="#294A4A" d="M3 23.5h5m16 0h5m-25 2h4m16 0h4m-24 2h4m16 0h4"/><path fill="#000" d="M11 23.5h3Zm7 0h3Zm-8 1h5Zm7 0h5Zm-7 1h5Zm7 0h5Zm-6 2h4Zm6 0h4Zm-5 1h3Zm5 0h3Z"/><path stroke="#7B0000" d="M11 23.5h3m4 0h3m-11 1h5m2 0h5m-12 1h5m2 0h5m-11 2h4m2 0h4m-9 1h3m2 0h3"/></g><g id="frame-11"><path fill="#000" d="M14 1.5h5Zm-2 1h2Zm7 0h1Zm-9 1h2Zm10 0h1Zm-11 1h1Zm12 0h1Zm-13 1h1Zm13 0h1Zm-14 1h1Zm4 0h10Zm11 0h1Zm-15 1h1Zm3 0h1Zm11 0h1Zm2 0h1Zm-16 1h17Zm0 1h1Zm2 0h3Zm6 0h1Zm3 0h1Zm3 0h2Zm3 0h1Zm-18 1h1Zm4 0h1Zm5 0h1Zm3 0h1Zm3 0h1Zm3 0h1Zm-18 1h1Zm4 0h1Zm11 0h1Zm3 0h1Zm-17 1h1Zm7 0h1Zm5 0h1Zm4 0h1Zm-15 1h2Zm4 0h3Zm7 0h2Zm3 0h1Zm-13 1h1Zm4 0h7Zm9 0h1Zm-13 1h2Zm6 0h4Zm6 0h1Zm-13 1h1Zm3 0h3Zm8 0h2Zm3 0h1Zm-15 1h1Zm8 0h4Zm8 0h1Zm-16 1h1Zm17 0h1Zm-17 1h1Zm4 0h1Zm3 0h2Zm4 0h1Zm6 0h1Zm-16 1h3Zm4 0h2Zm4 0h4Zm6 0h5Zm-19 1h6Zm14 0h2Zm3 0h1Zm3 0h2Zm4 0h1Zm-25 1h1Zm6 0h1Zm2 0h2Zm7 0h2Zm7 0h1Zm3 0h1Zm-25 1h1Zm6 0h2Zm9 0h2Zm7 0h5Zm-22 1h1Zm2 0h5Zm13 0h3Zm7 0h1Zm5 0h1Zm-27 1h1Zm2 0h8Zm14 0h2Zm6 0h1Zm5 0h1Zm-27 1h1Zm2 0h4Zm8 0h1Zm6 0h2Zm6 0h1Zm5 0h1Zm-27 1h1Zm2 0h3Zm8 0h1Zm6 0h2Zm7 0h5Zm-22 1h4Zm9 0h1Zm11 0h1Zm2 0h5Zm-19 1h1Zm3 0h4Zm5 0h1Zm11 0h4Zm-19 1h1Zm2 0h5Zm11 0h5Zm-12 1h5Zm6 0h6Z"/><path stroke="#002929" d="M14 1.5h5m-7 1h2m5 0h1m-10 1h2m8 0h1m-12 1h1m11 0h1m-14 1h1m12 0h1m-15 1h1m3 0h10m1 0h1m-16 1h1m2 0h1m10 0h1m1 0h1m-17 1h17m-17 1h1m1 0h3m3 0h1m2 0h1m2 0h2m1 0h1m-19 1h1m3 0h1m4 0h1m2 0h1m2 0h1m2 0h1m-19 1h1m3 0h1m10 0h1m2 0h1m-18 1h1m6 0h1m4 0h1m3 0h1m-16 1h2m2 0h3m4 0h2m1 0h1m-14 1h1m3 0h7m2 0h1m-14 1h2m4 0h4m2 0h1m-14 1h1m2 0h3m5 0h2m1 0h1m-16 1h1m7 0h4m4 0h1m-17 1h1m16 0h1m-18 1h1m3 0h1m2 0h2m2 0h1m5 0h1m-17 1h3m1 0h2m2 0h4m2 0h5m-24 1h6m8 0h2m1 0h1m2 0h2m2 0h1m-26 1h1m5 0h1m1 0h2m5 0h2m5 0h1m2 0h1m-26 1h1m5 0h2m7 0h2m5 0h5m-27 1h1m1 0h5m8 0h3m4 0h1m4 0h1m-28 1h1m1 0h8m6 0h2m4 0h1m4 0h1m-28 1h1m1 0h4m4 0h1m5 0h2m4 0h1m4 0h1m-28 1h1m1 0h3m5 0h1m5 0h2m5 0h5m-27 1h4m5 0h1m10 0h1m1 0h5m-24 1h1m2 0h4m1 0h1m10 0h4m-23 1h1m1 0h5m6 0h5m-17 1h5m1 0h6"/><path fill="#000" d="M14 2.5h5Zm-2 1h8Zm-2 1h3Zm10 0h1Zm-11 1h2Zm-1 1h2Zm3 1h10Zm-1 9h1Zm11 0h1Zm-12 1h3Zm10 0h4Zm-10 1h2Zm13 0h1Zm-3 11h5Zm-6 1h6Z"/><path stroke="red" d="M14 2.5h5m-7 1h8m-10 1h3m7 0h1m-12 1h2m-3 1h2m1 1h10m-11 9h1m10 0h1m-13 1h3m7 0h4m-14 1h2m11 0h1m-4 11h5m-11 1h6"/><path fill="#000" d="M13 4.5h3Zm5 0h2Zm-7 1h2Zm9 0h1Zm-10 1h1Zm11 0h1Zm-13 1h2Zm14 0h1Zm-13 9h1Zm-1 1h1Zm0 1h1Zm7 0h4Zm8 0h1Zm-15 1h3Zm8 0h2Zm7 0h1Zm-5 9h2Z"/><path stroke="#A50000" d="M13 4.5h3m2 0h2m-9 1h2m7 0h1m-11 1h1m10 0h1m-14 1h2m12 0h1m-14 9h1m-2 1h1m-1 1h1m6 0h4m4 0h1m-16 1h3m5 0h2m5 0h1m-6 9h2"/><path fill="#000" d="M16 4.5h2Zm-1 1h4Zm-1 4h1Zm5 0h1Zm-5 1h1Zm5 0h1Zm-5 1h2Zm4 0h2Zm-6 6h3Zm0 1h3Zm7 0h3Zm0 1h3Z"/><path stroke="#fff" d="M16 4.5h2m-3 1h4m-5 4h1m4 0h1m-6 1h1m4 0h1m-6 1h2m2 0h2m-8 6h3m-3 1h3m4 0h3m-3 1h3"/><path fill="#000" d="M13 5.5h2Zm6 0h1Zm-5 18h3Zm6 0h3Zm-8 1h5Zm8 0h4Zm-8 1h6Zm8 0h4Zm-7 1h5Zm0 1h1Zm7 0h4Zm-6 1h4Zm6 0h3Zm-5 1h4Z"/><path stroke="#7B0000" d="M13 5.5h2m4 0h1m-6 18h3m3 0h3m-11 1h5m3 0h4m-12 1h6m2 0h4m-11 1h5m-5 1h1m6 0h4m-10 1h4m2 0h3m-8 1h4"/><path fill="#000" d="M8 9.5h1Zm4 0h2Zm4 0h2Zm4 0h1Zm3 0h1Zm-16 1h3Zm4 0h3Zm5 0h2Zm4 0h1Zm2 0h2Zm-14 1h2Zm3 0h3Zm5 0h2Zm4 0h1Zm2 0h1Zm-12 1h4Zm5 0h4Zm5 0h2Zm-10 1h2Zm11 0h1Zm-10 1h2Zm9 0h1Zm-7 1h2Zm6 0h1Z"/><path stroke="#E7AD8C" d="M8 9.5h1m3 0h2m2 0h2m2 0h1m2 0h1m-17 1h3m1 0h3m2 0h2m2 0h1m1 0h2m-16 1h2m1 0h3m2 0h2m2 0h1m1 0h1m-13 1h4m1 0h4m1 0h2m-12 1h2m9 0h1m-11 1h2m7 0h1m-8 1h2m4 0h1"/><path fill="#000" d="M7 11.5h1Zm16 0h1Zm-15 1h2Zm14 0h1Zm-7 1h4Zm-5 1h1Zm11 0h1Zm-10 1h2Zm9 0h1Zm-6 1h5Z"/><path stroke="#AD7B5A" d="M7 11.5h1m15 0h1m-16 1h2m12 0h1m-8 1h4m-9 1h1m10 0h1m-11 1h2m7 0h1m-7 1h5"/><path fill="#000" d="M11 18.5h1Zm1 1h2Zm10 0h1Zm-2 1h2Zm-17 5h1Zm17 1h4Zm-6 1h4Zm10 0h1Zm-17 1h1Zm6 0h1Zm11 0h1Zm-11 1h1Z"/><path stroke="#CEEFEF" d="M11 18.5h1m0 1h2m8 0h1m-3 1h2m-19 5h1m16 1h4m-10 1h4m6 0h1m-18 1h1m5 0h1m10 0h1m-12 1h1"/><path fill="#000" d="M11 20.5h1Zm3 0h2Zm-5 1h3Zm6 0h2Zm4 0h1Zm2 0h1Zm-12 1h1Zm10 0h1Zm-9 1h2Zm9 0h1Zm-10 1h2Z"/><path stroke="#0000E7" d="M11 20.5h1m2 0h2m-7 1h3m3 0h2m2 0h1m1 0h1m-13 1h1m9 0h1m-10 1h2m7 0h1m-11 1h2"/><path fill="#000" d="M12 21.5h3Zm10 0h1Zm-10 1h2Zm11 0h1Zm-11 1h1Zm-1 1h1Z"/><path stroke="#0084FF" d="M12 21.5h3m7 0h1m-11 1h2m9 0h1m-12 1h1m-2 1h1"/><path fill="#000" d="M25 21.5h2Zm-21 1h4Zm21 3h4Zm-17 2h4Z"/><path stroke="#4A6B6B" d="M25 21.5h2m-23 1h4m17 3h4m-21 2h4"/><path fill="#000" d="M3 22.5h1Zm22 0h2Zm-22 1h5Zm22 1h4Zm-17 2h4Zm17 0h4Zm-22 1h1Zm5 1h4Zm0 1h1Zm-1 1h1Z"/><path stroke="#294A4A" d="M3 22.5h1m21 0h2m-24 1h5m17 1h4m-21 2h4m13 0h4m-26 1h1m4 1h4m-4 1h1m-2 1h1"/><path fill="#000" d="M14 22.5h3Zm6 0h3Zm-7 1h1Zm10 0h1Z"/><path stroke="#DE9C21" d="M14 22.5h3m3 0h3m-10 1h1m9 0h1"/><path fill="#000" d="M3 24.5h1Zm0 2h1Zm4 1h1Zm0 2h1Z"/><path stroke="#7B7B7B" d="M3 24.5h1m-1 2h1m3 1h1m-1 2h1"/></g><g id="frame-10"><path fill="#000" d="M13 1.5h5Zm-2 1h2Zm7 0h1Zm-9 1h2Zm10 0h1Zm-11 1h1Zm12 0h1Zm-13 1h1Zm13 0h1Zm-14 1h1Zm5 0h11Zm-5 1h1Zm4 0h1Zm12 0h1Zm-16 1h2Zm3 0h14Zm-3 1h1Zm2 0h4Zm12 0h2Zm3 0h1Zm-18 1h1Zm4 0h2Zm6 0h1Zm3 0h1Zm2 0h1Zm3 0h1Zm-18 1h1Zm4 0h2Zm6 0h1Zm3 0h1Zm2 0h1Zm3 0h1Zm-17 1h1Zm4 0h1Zm4 0h1Zm5 0h1Zm3 0h1Zm-15 1h2Zm5 0h3Zm7 0h3Zm-11 1h2Zm5 0h7Zm8 0h1Zm-12 1h2Zm7 0h3Zm4 0h1Zm-12 1h1Zm3 0h2Zm8 0h1Zm2 0h1Zm-14 1h1Zm9 0h3Zm6 0h1Zm-15 1h1Zm12 0h1Zm4 0h1Zm-17 1h2Zm6 0h1Zm3 0h1Zm4 0h1Zm5 0h1Zm-19 1h1Zm2 0h2Zm5 0h3Zm4 0h5Zm9 0h1Zm-20 1h1Zm2 0h1Zm2 0h3Zm8 0h3Zm4 0h4Zm5 0h1Zm-23 1h4Zm12 0h1Zm4 0h2Zm7 0h3Zm-24 1h1Zm4 0h1Zm8 0h1Zm5 0h2Zm6 0h1Zm4 0h1Zm-28 1h1Zm6 0h1Zm7 0h1Zm6 0h2Zm5 0h2Zm5 0h1Zm-29 1h1Zm4 0h4Zm9 0h4Zm6 0h2Zm5 0h2Zm5 0h1Zm-29 1h1Zm4 0h3Zm4 0h1Zm4 0h1Zm5 0h1Zm4 0h1Zm3 0h6Zm-24 1h1Zm4 0h4Zm5 0h3Zm11 0h1Zm5 0h5Zm-24 1h1Zm2 0h4Zm5 0h1Zm3 0h1Zm6 0h1Zm6 0h2Zm3 0h3Zm-24 1h4Zm7 0h3Zm6 0h3Zm-3 1h1Zm2 0h4Zm8 0h3Zm-9 1h4Zm5 0h4Z"/><path stroke="#002929" d="M13 1.5h5m-7 1h2m5 0h1m-10 1h2m8 0h1m-12 1h1m11 0h1m-14 1h1m12 0h1m-15 1h1m4 0h11m-16 1h1m3 0h1m11 0h1m-17 1h2m1 0h14m-17 1h1m1 0h4m8 0h2m1 0h1m-19 1h1m3 0h2m4 0h1m2 0h1m1 0h1m2 0h1m-19 1h1m3 0h2m4 0h1m2 0h1m1 0h1m2 0h1m-18 1h1m3 0h1m3 0h1m4 0h1m2 0h1m-16 1h2m3 0h3m4 0h3m-14 1h2m3 0h7m1 0h1m-13 1h2m5 0h3m1 0h1m-13 1h1m2 0h2m6 0h1m1 0h1m-15 1h1m8 0h3m3 0h1m-16 1h1m11 0h1m3 0h1m-18 1h2m4 0h1m2 0h1m3 0h1m4 0h1m-20 1h1m1 0h2m3 0h3m1 0h5m4 0h1m-21 1h1m1 0h1m1 0h3m5 0h3m1 0h4m1 0h1m-24 1h4m8 0h1m3 0h2m5 0h3m-27 1h1m3 0h1m7 0h1m4 0h2m4 0h1m3 0h1m-29 1h1m5 0h1m6 0h1m5 0h2m3 0h2m3 0h1m-30 1h1m3 0h4m5 0h4m2 0h2m3 0h2m3 0h1m-30 1h1m3 0h3m1 0h1m3 0h1m4 0h1m3 0h1m2 0h6m-30 1h1m3 0h4m1 0h3m8 0h1m4 0h5m-29 1h1m1 0h4m1 0h1m2 0h1m5 0h1m5 0h2m1 0h3m-27 1h4m3 0h3m3 0h3m-6 1h1m1 0h4m4 0h3m-12 1h4m1 0h4"/><path fill="#000" d="M13 2.5h5Zm-2 1h8Zm-2 1h4Zm10 0h1Zm-11 1h2Zm-1 1h2Zm0 1h1Zm4 0h11Zm-2 9h2Zm11 0h1Zm-11 1h4Zm10 0h3Zm-10 1h3Zm0 1h3Zm14 10h3Zm-4 1h4Z"/><path stroke="red" d="M13 2.5h5m-7 1h8m-10 1h4m6 0h1m-12 1h2m-3 1h2m-2 1h1m3 0h11m-13 9h2m9 0h1m-12 1h4m6 0h3m-13 1h3m-3 1h3m11 10h3m-7 1h4"/><path fill="#000" d="M13 4.5h3Zm5 0h1Zm-8 1h3Zm9 0h1Zm-10 1h1Zm-1 1h1Zm0 1h1Zm0 9h1Zm0 1h1Zm8 0h3Zm4 0h1Zm-12 1h1Zm8 0h3Zm-7 1h3Zm15 0h1Zm-4 1h1Z"/><path stroke="#A50000" d="M13 4.5h3m2 0h1m-9 1h3m6 0h1m-11 1h1m-2 1h1m-1 1h1m-1 9h1m-1 1h1m7 0h3m1 0h1m-13 1h1m7 0h3m-10 1h3m12 0h1m-5 1h1"/><path fill="#000" d="M16 4.5h2Zm-1 1h4Zm-1 4h2Zm4 0h2Zm-4 1h1Zm5 0h1Zm-5 1h1Zm5 0h1Zm-6 6h3Zm0 1h3Zm8 0h2Zm0 1h3Zm-13 7h1Zm1 1h1Zm1 1h2Z"/><path stroke="#fff" d="M16 4.5h2m-3 1h4m-5 4h2m2 0h2m-6 1h1m4 0h1m-6 1h1m4 0h1m-7 6h3m-3 1h3m5 0h2m-2 1h3m-16 7h1m0 1h1m0 1h2"/><path fill="#000" d="M13 5.5h2Zm-3 1h1Zm-1 1h1Zm7 16h3Zm5 0h3Zm-6 1h5Zm7 0h3Zm-4 1h2Zm4 0h3Zm-3 1h1Zm1 1h1Zm2 0h3Zm-3 1h5Zm0 1h4Z"/><path stroke="#7B0000" d="M13 5.5h2m-5 1h1m-2 1h1m6 16h3m2 0h3m-9 1h5m2 0h3m-7 1h2m2 0h3m-6 1h1m0 1h1m1 0h3m-6 1h5m-5 1h4"/><path fill="#000" d="M7 9.5h1Zm5 0h2Zm4 0h2Zm-10 1h3Zm5 0h3Zm5 0h2Zm5 0h1Zm-14 1h2Zm4 0h3Zm5 0h2Zm5 0h1Zm-12 1h1Zm2 0h3Zm4 0h4Zm5 0h1Zm-10 1h2Zm0 1h3Zm3 1h3Zm-7 5h1Zm0 1h1Z"/><path stroke="#E7AD8C" d="M7 9.5h1m4 0h2m2 0h2m-12 1h3m2 0h3m2 0h2m3 0h1m-15 1h2m2 0h3m2 0h2m3 0h1m-13 1h1m1 0h3m1 0h4m1 0h1m-11 1h2m-2 1h3m0 1h3m-10 5h1m-1 1h1"/><path fill="#000" d="M22 9.5h1Zm0 1h1Zm-16 1h1Zm16 0h1Zm-15 1h2Zm14 0h1Zm-12 1h1Zm6 0h4Zm5 1h1Zm-9 1h2Zm8 0h1Zm-6 1h6Z"/><path stroke="#AD7B5A" d="M22 9.5h1m-1 1h1m-17 1h1m15 0h1m-16 1h2m12 0h1m-13 1h1m5 0h4m1 1h1m-10 1h2m6 0h1m-7 1h6"/><path fill="#000" d="M12 18.5h1Zm1 1h2Zm7 0h1Zm1 1h3Zm-1 6h2Zm3 0h2Zm-20 1h1Zm16 0h1Zm6 0h1Zm-11 2h1Z"/><path stroke="#CEEFEF" d="M12 18.5h1m0 1h2m5 0h1m0 1h3m-4 6h2m1 0h2m-22 1h1m15 0h1m5 0h1m-12 2h1"/><path fill="#000" d="M15 20.5h1Zm-7 1h1Zm4 0h1Zm4 0h1Zm-9 1h5Zm0 1h3Zm1 1h2Zm5 0h1Zm-4 1h2Zm3 0h2Zm-2 1h3Z"/><path stroke="#0000E7" d="M15 20.5h1m-8 1h1m3 0h1m3 0h1m-10 1h5m-5 1h3m-2 1h2m3 0h1m-5 1h2m1 0h2m-4 1h3"/><path fill="#000" d="M13 21.5h3Zm-1 1h3Zm12 0h1Zm-14 1h4Zm0 1h3Zm1 1h1Z"/><path stroke="#0084FF" d="M13 21.5h3m-4 1h3m9 0h1m-15 1h4m-4 1h3m-2 1h1"/><path fill="#000" d="M25 21.5h1Zm-22 2h3Zm24 1h3Zm-12 3h3Z"/><path stroke="#4A6B6B" d="M25 21.5h1m-23 2h3m21 1h3m-15 3h3"/><path fill="#000" d="M16 22.5h3Zm5 0h3Zm-6 1h1Zm9 0h1Z"/><path stroke="#DE9C21" d="M16 22.5h3m2 0h3m-9 1h1m8 0h1"/><path fill="#000" d="M25 22.5h1Zm1 1h3Zm-24 1h5Zm0 1h1Zm2 0h1Zm23 0h3Zm-24 1h2Zm11 0h4Zm-10 1h1Zm9 0h1Zm5 0h1Zm-4 1h1Zm2 0h2Zm-3 1h1Zm2 0h1Z"/><path stroke="#294A4A" d="M25 22.5h1m0 1h3m-27 1h5m-5 1h1m1 0h1m22 0h3m-27 1h2m9 0h4m-14 1h1m8 0h1m4 0h1m-5 1h1m1 0h2m-5 1h1m1 0h1"/><path fill="#000" d="M3 25.5h1Zm-1 1h1Zm0 1h1Zm12 0h1Zm-11 1h1Zm10 0h1Zm2 0h1Zm-1 2h1Z"/><path stroke="#7B7B7B" d="M3 25.5h1m-2 1h1m-1 1h1m11 0h1m-12 1h1m9 0h1m1 0h1m-2 2h1"/></g><g id="frame-9"><path fill="#000" d="M14 1.5h5Zm-2 1h2Zm7 0h1Zm-9 1h2Zm9 0h1Zm-11 1h2Zm12 0h1Zm-13 1h1Zm13 0h1Zm-14 1h1Zm5 0h11Zm-6 1h1Zm4 0h2Zm13 0h1Zm-17 1h1Zm3 0h2Zm3 0h12Zm-6 1h1Zm2 0h1Zm2 0h4Zm11 0h1Zm2 0h1Zm-17 1h2Zm5 0h2Zm6 0h1Zm3 0h2Zm3 0h1Zm-16 1h1Zm4 0h2Zm6 0h1Zm3 0h2Zm3 0h1Zm-16 1h1Zm5 0h1Zm4 0h1Zm5 0h2Zm-13 1h2Zm7 0h3Zm7 0h1Zm-12 1h1Zm6 0h6Zm-6 1h3Zm7 0h4Zm-8 1h1Zm4 0h1Zm6 0h1Zm-11 1h1Zm6 0h2Zm5 0h6Zm-12 1h2Zm18 0h1Zm-19 1h1Zm2 0h1Zm7 0h1Zm3 0h1Zm7 0h1Zm-20 1h1Zm3 0h2Zm8 0h2Zm8 0h1Zm2 0h2Zm-21 1h1Zm3 0h1Zm2 0h2Zm4 0h2Zm5 0h1Zm3 0h4Zm6 0h1Zm-23 1h4Zm7 0h2Zm8 0h1Zm4 0h2Zm5 0h2Zm-25 1h1Zm3 0h2Zm18 0h4Zm6 0h1Zm-28 1h1Zm4 0h3Zm19 0h2Zm3 0h1Zm2 0h1Zm-29 1h1Zm5 0h3Zm15 0h3Zm5 0h2Zm4 0h1Zm-29 1h1Zm6 0h1Zm2 0h1Zm5 0h3Zm6 0h1Zm4 0h1Zm3 0h4Zm-26 1h1Zm6 0h1Zm3 0h8Zm9 0h1Zm6 0h1Zm4 0h2Zm-28 1h1Zm6 0h2Zm10 0h3Zm8 0h1Zm3 0h1Zm-26 1h1Zm4 0h2Zm3 0h11Zm16 0h3Zm-22 1h4Zm17 0h1Zm4 0h2Zm-3 1h4Z"/><path stroke="#002929" d="M14 1.5h5m-7 1h2m5 0h1m-10 1h2m7 0h1m-12 1h2m10 0h1m-14 1h1m12 0h1m-15 1h1m4 0h11m-17 1h1m3 0h2m11 0h1m-18 1h1m2 0h2m1 0h12m-18 1h1m1 0h1m1 0h4m7 0h1m1 0h1m-18 1h2m3 0h2m4 0h1m2 0h2m1 0h1m-17 1h1m3 0h2m4 0h1m2 0h2m1 0h1m-17 1h1m4 0h1m3 0h1m4 0h2m-15 1h2m5 0h3m4 0h1m-13 1h1m5 0h6m-12 1h3m4 0h4m-12 1h1m3 0h1m5 0h1m-12 1h1m5 0h2m3 0h6m-18 1h2m16 0h1m-20 1h1m1 0h1m6 0h1m2 0h1m6 0h1m-21 1h1m2 0h2m6 0h2m6 0h1m1 0h2m-23 1h1m2 0h1m1 0h2m2 0h2m3 0h1m2 0h4m2 0h1m-24 1h4m3 0h2m6 0h1m3 0h2m3 0h2m-27 1h1m2 0h2m16 0h4m2 0h1m-29 1h1m3 0h3m16 0h2m1 0h1m1 0h1m-30 1h1m4 0h3m12 0h3m2 0h2m2 0h1m-30 1h1m5 0h1m1 0h1m4 0h3m3 0h1m3 0h1m2 0h4m-30 1h1m5 0h1m2 0h8m1 0h1m5 0h1m3 0h2m-30 1h1m5 0h2m8 0h3m5 0h1m2 0h1m-27 1h1m3 0h2m1 0h11m5 0h3m-25 1h4m13 0h1m3 0h2m-5 1h4"/><path fill="#000" d="M14 2.5h5Zm-2 1h7Zm-2 1h3Zm-2 1h3Zm-1 1h2Zm-1 1h2Zm5 0h11Zm-1 1h1Zm-1 9h3Zm0 1h5Zm11 0h2Zm-11 1h5Zm11 0h2Zm-9 1h2Zm17 7h1Zm-2 1h2Z"/><path stroke="red" d="M14 2.5h5m-7 1h7m-9 1h3m-5 1h3m-4 1h2m-3 1h2m3 0h11m-12 1h1m-2 9h3m-3 1h5m6 0h2m-13 1h5m6 0h2m-11 1h2m15 7h1m-3 1h2"/><path fill="#000" d="M13 4.5h4Zm6 0h1Zm-8 1h2Zm-2 1h2Zm-1 1h1Zm-2 1h2Zm3 8h3Zm-1 1h1Zm4 0h1Zm-4 1h1Zm11 0h1Zm-11 1h1Zm11 0h1Zm-10 1h2Zm4 0h2Zm4 0h2Zm3 0h2Zm-9 1h2Zm-3 6h1Zm1 1h1Z"/><path stroke="#A50000" d="M13 4.5h4m2 0h1m-9 1h2m-4 1h2m-3 1h1m-3 1h2m1 8h3m-4 1h1m3 0h1m-5 1h1m10 0h1m-12 1h1m10 0h1m-11 1h2m2 0h2m2 0h2m1 0h2m-11 1h2m-5 6h1m0 1h1"/><path fill="#000" d="M17 4.5h2Zm-1 1h3Zm-1 4h2Zm4 0h1Zm-4 1h1Zm0 1h1Zm0 6h3Zm-1 1h4Zm8 0h2Zm0 1h2Zm-14 7h1Zm1 1h1Zm1 1h7Z"/><path stroke="#fff" d="M17 4.5h2m-3 1h3m-4 4h2m2 0h1m-5 1h1m-1 1h1m-1 6h3m-4 1h4m4 0h2m-2 1h2m-16 7h1m0 1h1m0 1h7"/><path fill="#000" d="M13 5.5h3Zm6 0h1Zm-13 4h1Zm19 13h2Zm-5 1h4Zm-1 1h6Zm0 1h2Zm5 0h1Zm-5 1h1Zm6 0h2Zm1 1h2Z"/><path stroke="#7B0000" d="M13 5.5h3m3 0h1m-14 4h1m18 13h2m-7 1h4m-5 1h6m-6 1h2m3 0h1m-6 1h1m5 0h2m-1 1h2"/><path fill="#000" d="M8 9.5h1Zm5 0h2Zm4 0h2Zm-9 1h2Zm4 0h3Zm5 0h2Zm-9 1h2Zm4 0h3Zm5 0h2Zm-8 1h2Zm3 0h3Zm4 0h4Zm-6 1h4Zm1 1h4Zm2 1h3Zm-7 4h1Zm-1 1h1Zm0 1h1Z"/><path stroke="#E7AD8C" d="M8 9.5h1m4 0h2m2 0h2m-11 1h2m2 0h3m2 0h2m-11 1h2m2 0h3m2 0h2m-10 1h2m1 0h3m1 0h4m-10 1h4m-3 1h4m-2 1h3m-10 4h1m-2 1h1m-1 1h1"/><path fill="#000" d="M21 9.5h1Zm-14 1h1Zm14 0h1Zm-14 1h1Zm14 0h1Zm-14 1h2Zm2 1h1Zm8 0h4Zm-7 1h1Zm2 1h1Zm1 1h5Zm-7 4h1Zm0 1h1Z"/><path stroke="#AD7B5A" d="M21 9.5h1m-15 1h1m13 0h1m-15 1h1m13 0h1m-15 1h2m0 1h1m7 0h4m-11 1h1m1 1h1m0 1h5m-12 4h1m-1 1h1"/><path fill="#000" d="M18 18.5h1Zm0 1h1Zm1 1h1Zm-11 1h1Zm9 0h1Zm2 0h2Zm-11 1h3Zm0 1h4Zm1 1h4Zm6 0h4Zm-6 1h10Zm1 1h4Zm7 0h2Zm1 1h1Z"/><path stroke="#0000E7" d="M18 18.5h1m-1 1h1m0 1h1m-12 1h1m8 0h1m1 0h2m-13 1h3m-3 1h4m-3 1h4m2 0h4m-10 1h10m-9 1h4m3 0h2m-1 1h1"/><path fill="#000" d="M15 19.5h2Zm7 1h1Zm5 4h1Zm-2 1h1Zm-21 2h1Zm0 1h1Zm18 1h1Z"/><path stroke="#CEEFEF" d="M15 19.5h2m5 1h1m4 4h1m-3 1h1m-22 2h1m-1 1h1m17 1h1"/><path fill="#000" d="M15 21.5h2Zm-2 1h6Zm-1 1h7Zm1 1h2Z"/><path stroke="#0084FF" d="M15 21.5h2m-4 1h6m-7 1h7m-6 1h2"/><path fill="#000" d="M25 21.5h2Zm-5 1h3Zm7 0h1Zm-8 1h1Z"/><path stroke="#DE9C21" d="M25 21.5h2m-7 1h3m4 0h1m-9 1h1"/><path fill="#000" d="M4 23.5h2Zm25 0h1Zm-27 2h2Zm3 0h1Zm23 0h2Zm-26 1h1Zm2 0h1Zm2 0h1Zm-4 1h1Zm4 0h1Zm15 0h1Zm2 0h1Zm-21 1h1Zm4 0h1Zm14 0h1Zm2 0h1Zm2 0h1Zm-21 1h1Zm2 0h1Zm15 0h1Zm4 0h1Zm-3 1h1Zm2 0h1Z"/><path stroke="#294A4A" d="M4 23.5h2m23 0h1m-28 2h2m1 0h1m22 0h2m-28 1h1m1 0h1m1 0h1m-5 1h1m3 0h1m14 0h1m1 0h1m-22 1h1m3 0h1m13 0h1m1 0h1m1 0h1m-22 1h1m1 0h1m14 0h1m3 0h1m-4 1h1m1 0h1"/><path fill="#000" d="M28 23.5h1Zm-25 1h3Zm26 0h1Zm-8 2h3Zm-1 1h1Zm4 0h1Z"/><path stroke="#4A6B6B" d="M28 23.5h1m-26 1h3m23 0h1m-9 2h3m-4 1h1m3 0h1"/><path fill="#000" d="M4 25.5h1Zm-1 1h1Zm2 0h1Zm-2 1h1Zm2 0h1Zm17 0h1Zm-19 1h1Zm2 0h1Zm16 0h1Zm2 0h1Zm-19 1h1Zm17 0h1Zm2 0h1Zm-1 1h1Z"/><path stroke="#7B7B7B" d="M4 25.5h1m-2 1h1m1 0h1m-3 1h1m1 0h1m16 0h1m-20 1h1m1 0h1m15 0h1m1 0h1m-20 1h1m16 0h1m1 0h1m-2 1h1"/></g><g id="frame-8"><path fill="#000" d="M14 1.5h4Zm-3 1h3Zm7 0h1Zm-9 1h2Zm9 0h1Zm-10 1h1Zm10 0h1Zm-11 1h1Zm11 0h1Zm-12 1h1Zm7 0h7Zm-8 1h2Zm6 0h2Zm9 0h1Zm-16 1h1Zm5 0h2Zm4 0h6Zm7 0h2Zm-16 1h1Zm4 0h1Zm3 0h3Zm7 0h2Zm-14 1h1Zm3 0h1Zm5 0h1Zm4 0h1Zm2 0h1Zm-13 1h3Zm7 0h1Zm4 0h1Zm2 0h3Zm-12 1h3Zm6 0h1Zm3 0h1Zm6 0h1Zm-15 1h5Zm9 0h3Zm6 0h1Zm-14 1h3Zm9 0h5Zm-7 1h3Zm8 0h3Zm-9 1h1Zm4 0h2Zm6 0h2Zm-11 1h1Zm7 0h4Zm6 0h2Zm-14 1h2Zm15 0h2Zm-16 1h1Zm2 0h1Zm10 0h1Zm4 0h3Zm-16 1h1Zm2 0h1Zm2 0h1Zm9 0h3Zm4 0h3Zm-17 1h1Zm2 0h1Zm3 0h2Zm6 0h2Zm5 0h1Zm3 0h4Zm-19 1h1Zm2 0h1Zm5 0h4Zm12 0h1Zm4 0h1Zm-25 1h5Zm21 0h3Zm4 0h1Zm-25 1h2Zm4 0h2Zm16 0h2Zm4 0h2Zm-25 1h2Zm6 0h4Zm15 0h1Zm5 0h2Zm-26 1h1Zm4 0h1Zm3 0h1Zm2 0h2Zm6 0h3Zm5 0h1Zm6 0h2Zm-26 1h1Zm7 0h1Zm4 0h4Zm7 0h3Zm6 0h1Zm3 0h1Zm-27 1h1Zm7 0h1Zm13 0h1Zm7 0h1Zm-26 1h1Zm5 0h1Zm2 0h12Zm13 0h1Zm5 0h1Zm-24 1h4Zm20 0h4Z"/><path stroke="#002929" d="M14 1.5h4m-7 1h3m4 0h1m-10 1h2m7 0h1m-11 1h1m9 0h1m-12 1h1m10 0h1m-13 1h1m6 0h7m-15 1h2m4 0h2m7 0h1m-17 1h1m4 0h2m2 0h6m1 0h2m-18 1h1m3 0h1m2 0h3m4 0h2m-16 1h1m2 0h1m4 0h1m3 0h1m1 0h1m-14 1h3m4 0h1m3 0h1m1 0h3m-15 1h3m3 0h1m2 0h1m5 0h1m-16 1h5m4 0h3m3 0h1m-15 1h3m6 0h5m-12 1h3m5 0h3m-12 1h1m3 0h2m4 0h2m-13 1h1m6 0h4m2 0h2m-16 1h2m13 0h2m-18 1h1m1 0h1m9 0h1m3 0h3m-19 1h1m1 0h1m1 0h1m8 0h3m1 0h3m-20 1h1m1 0h1m2 0h2m4 0h2m3 0h1m2 0h4m-23 1h1m1 0h1m4 0h4m8 0h1m3 0h1m-26 1h5m16 0h3m1 0h1m-26 1h2m2 0h2m14 0h2m2 0h2m-27 1h2m4 0h4m11 0h1m4 0h2m-28 1h1m3 0h1m2 0h1m1 0h2m4 0h3m2 0h1m5 0h2m-28 1h1m6 0h1m3 0h4m3 0h3m3 0h1m2 0h1m-28 1h1m6 0h1m12 0h1m6 0h1m-27 1h1m4 0h1m1 0h12m1 0h1m4 0h1m-25 1h4m16 0h4"/><path fill="#000" d="M14 2.5h4Zm-3 1h7Zm-2 1h4Zm-1 1h3Zm-1 1h2Zm0 1h1Zm6 0h7Zm-8 1h2Zm6 0h2Zm-1 8h2Zm-1 1h5Zm1 1h7Zm2 1h5Z"/><path stroke="red" d="M14 2.5h4m-7 1h7m-9 1h4m-5 1h3m-4 1h2m-2 1h1m5 0h7m-15 1h2m4 0h2m-3 8h2m-3 1h5m-4 1h7m-5 1h5"/><path fill="#000" d="M13 4.5h4Zm-2 1h2Zm-2 1h2Zm-1 1h1Zm-1 1h1Zm12 0h1Zm-14 1h2Zm0 1h2Zm4 8h1Zm0 1h3Zm1 1h8Zm2 1h4Zm-2 6h1Zm7 0h3Zm-7 1h3Z"/><path stroke="#A50000" d="M13 4.5h4m-6 1h2m-4 1h2m-3 1h1m-2 1h1m11 0h1m-15 1h2m-2 1h2m2 8h1m-1 1h3m-2 1h8m-6 1h4m-6 6h1m6 0h3m-10 1h3"/><path fill="#000" d="M17 4.5h1Zm-1 1h2Zm-1 5h1Zm0 1h1Zm3 6h2Zm0 1h3Zm-8 8h1Zm1 1h2Zm2 1h8Z"/><path stroke="#fff" d="M17 4.5h1m-2 1h2m-3 5h1m-1 1h1m2 6h2m-2 1h3m-11 8h1m0 1h2m0 1h8"/><path fill="#000" d="M13 5.5h3Zm-2 1h2Zm-2 1h2Zm-1 1h1Zm-1 1h1Zm15 13h2Zm-1 1h3Zm0 1h2Zm-1 1h3Zm0 1h2Zm1 2h1Z"/><path stroke="#7B0000" d="M13 5.5h3m-5 1h2m-4 1h2m-3 1h1m-2 1h1m14 13h2m-3 1h3m-3 1h2m-3 1h3m-3 1h2m-1 2h1"/><path fill="#000" d="M9 9.5h2Zm5 0h1Zm3 0h1Zm-8 1h3Zm4 0h2Zm4 0h1Zm-8 1h3Zm4 0h2Zm4 0h1Zm-6 1h1Zm2 0h2Zm3 0h5Zm-5 1h4Zm1 1h4Zm2 1h3Zm-8 4h1Zm0 1h1Zm0 1h1Zm0 1h1Z"/><path stroke="#E7AD8C" d="M9 9.5h2m3 0h1m2 0h1m-9 1h3m1 0h2m2 0h1m-9 1h3m1 0h2m2 0h1m-7 1h1m1 0h2m1 0h5m-10 1h4m-3 1h4m-2 1h3m-11 4h1m-1 1h1m-1 1h1m-1 1h1"/><path fill="#000" d="M15 9.5h2Zm2 9h1Zm1 1h3Zm-15 3h2Zm2 5h1Zm0 1h2Zm20 0h1Z"/><path stroke="#CEEFEF" d="M15 9.5h2m0 9h1m0 1h3m-18 3h2m0 5h1m-1 1h2m18 0h1"/><path fill="#000" d="M8 10.5h1Zm0 1h1Zm1 1h2Zm9 1h3Zm-8 1h2Zm2 1h2Zm2 1h4Z"/><path stroke="#AD7B5A" d="M8 10.5h1m-1 1h1m0 1h2m7 1h3m-11 1h2m0 1h2m0 1h4"/><path fill="#000" d="M9 16.5h1Zm9 5h3Zm-2 1h5Zm-4 1h9Zm2 1h3Z"/><path stroke="#0084FF" d="M9 16.5h1m8 5h3m-5 1h5m-9 1h9m-7 1h3"/><path fill="#000" d="M8 17.5h1Zm0 1h1Zm0 1h1Zm0 1h1Zm0 1h2Zm0 1h4Zm0 1h4Zm1 1h5Zm8 0h4Zm-5 1h8Zm1 1h4Z"/><path stroke="#0000E7" d="M8 17.5h1m-1 1h1m-1 1h1m-1 1h1m-1 1h2m-2 1h4m-4 1h4m-3 1h5m3 0h4m-9 1h8m-7 1h4"/><path fill="#000" d="M22 21.5h2Zm-1 1h1Z"/><path stroke="#DE9C21" d="M22 21.5h2m-3 1h1"/><path fill="#000" d="M25 22.5h3Zm0 2h2Zm-1 1h1Zm3 0h1Z"/><path stroke="#4A6B6B" d="M25 22.5h3m-3 2h2m-3 1h1m2 0h1"/><path fill="#000" d="M27 23.5h1Zm-22 1h2Zm-1 1h1Zm3 0h1Zm18 0h2Zm-22 1h1Zm2 0h1Zm3 0h1Zm15 0h2Zm4 0h1Zm-24 1h1Zm3 0h1Zm2 0h1Zm15 0h1Zm2 0h1Zm3 0h1Zm-25 1h1Zm5 0h1Zm15 0h1Zm3 0h1Zm2 0h1Zm-24 1h1Zm3 0h1Zm17 0h1Zm3 0h1Z"/><path stroke="#294A4A" d="M27 23.5h1m-23 1h2m-3 1h1m2 0h1m17 0h2m-24 1h1m1 0h1m2 0h1m14 0h2m2 0h1m-25 1h1m2 0h1m1 0h1m14 0h1m1 0h1m2 0h1m-26 1h1m4 0h1m14 0h1m2 0h1m1 0h1m-25 1h1m2 0h1m16 0h1m2 0h1"/><path fill="#000" d="M5 25.5h2Zm-1 1h1Zm3 0h1Zm18 0h2Zm-21 1h1Zm3 0h1Zm17 0h1Zm3 0h1Zm-23 1h1Zm3 0h1Zm17 0h1Zm3 0h1Zm-22 1h2Zm20 0h2Z"/><path stroke="#7B7B7B" d="M5 25.5h2m-3 1h1m2 0h1m17 0h2m-23 1h1m2 0h1m16 0h1m2 0h1m-24 1h1m2 0h1m16 0h1m2 0h1m-23 1h2m18 0h2"/></g><g id="frame-7"><path fill="#000" d="M14 1.5h4Zm-2 1h2Zm6 0h1Zm-8 1h2Zm9 0h1Zm-10 1h1Zm10 0h1Zm-11 1h1Zm11 0h1Zm-13 1h2Zm13 0h2Zm-14 1h1Zm11 0h4Zm5 0h1Zm-16 1h1Zm8 0h3Zm9 0h1Zm-17 1h1Zm5 0h3Zm6 0h2Zm3 0h3Zm-13 1h1Zm3 0h1Zm3 0h4Zm6 0h1Zm2 0h1Zm-14 1h3Zm7 0h1Zm5 0h1Zm2 0h2Zm-14 1h3Zm7 0h1Zm4 0h1Zm5 0h1Zm-15 1h3Zm10 0h2Zm5 0h1Zm-14 1h4Zm10 0h4Zm-10 1h1Zm3 0h3Zm9 0h1Zm-12 1h1Zm6 0h2Zm4 0h3Zm-11 1h1Zm9 0h3Zm5 0h2Zm-17 1h3Zm19 0h1Zm-20 1h1Zm3 0h1Zm16 0h2Zm-19 1h1Zm3 0h1Zm4 0h1Zm9 0h7Zm-12 1h1Zm4 0h3Zm6 0h2Zm6 0h1Zm3 0h1Zm-22 1h2Zm3 0h1Zm7 0h3Zm8 0h1Zm4 0h1Zm-24 1h2Zm4 0h3Zm20 0h2Zm-20 1h1Zm3 0h2Zm16 0h1Zm3 0h1Zm-23 1h1Zm5 0h2Zm14 0h1Zm5 0h1Zm-25 1h1Zm7 0h3Zm7 0h4Zm5 0h1Zm7 0h1Zm-26 1h1Zm4 0h1Zm3 0h1Zm3 0h4Zm9 0h1Zm4 0h1Zm3 0h1Zm-28 1h1Zm2 0h1Zm7 0h1Zm7 0h6Zm12 0h1Zm-28 1h3Zm9 0h7Zm13 0h1Zm5 0h1Zm-26 1h1Zm2 0h1Zm5 0h1Zm15 0h4Zm-19 1h4Z"/><path stroke="#002929" d="M14 1.5h4m-6 1h2m4 0h1m-9 1h2m7 0h1m-11 1h1m9 0h1m-12 1h1m10 0h1m-14 1h2m11 0h2m-16 1h1m10 0h4m1 0h1m-17 1h1m7 0h3m6 0h1m-18 1h1m4 0h3m3 0h2m1 0h3m-16 1h1m2 0h1m2 0h4m2 0h1m1 0h1m-15 1h3m4 0h1m4 0h1m1 0h2m-16 1h3m4 0h1m3 0h1m4 0h1m-16 1h3m7 0h2m3 0h1m-15 1h4m6 0h4m-14 1h1m2 0h3m6 0h1m-13 1h1m5 0h2m2 0h3m-14 1h1m8 0h3m2 0h2m-19 1h3m16 0h1m-21 1h1m2 0h1m15 0h2m-21 1h1m2 0h1m3 0h1m8 0h7m-19 1h1m3 0h3m3 0h2m4 0h1m2 0h1m-23 1h2m1 0h1m6 0h3m5 0h1m3 0h1m-25 1h2m2 0h3m17 0h2m-22 1h1m2 0h2m14 0h1m2 0h1m-24 1h1m4 0h2m12 0h1m4 0h1m-26 1h1m6 0h3m4 0h4m1 0h1m6 0h1m-27 1h1m3 0h1m2 0h1m2 0h4m5 0h1m3 0h1m2 0h1m-29 1h1m1 0h1m6 0h1m6 0h6m6 0h1m-29 1h3m6 0h7m6 0h1m4 0h1m-27 1h1m1 0h1m4 0h1m14 0h4m-23 1h4"/><path fill="#000" d="M14 2.5h4Zm-2 1h7Zm-2 1h9Zm-1 1h7Zm-1 1h5Zm-1 1h3Zm0 1h2Zm9 0h5Zm-3 1h3Zm-4 6h2Zm3 1h2Zm-1 1h5Zm1 1h4Zm5 0h2Zm-3 1h5Z"/><path stroke="red" d="M14 2.5h4m-6 1h7m-9 1h9m-10 1h7m-8 1h5m-6 1h3m-3 1h2m7 0h5m-8 1h3m-7 6h2m1 1h2m-3 1h5m-4 1h4m1 0h2m-5 1h5"/><path fill="#000" d="M16 5.5h2Zm-3 1h3Zm-7 1h1Zm4 0h3Zm10 0h1Zm-14 1h1Zm3 0h1Zm12 0h1Zm-15 1h3Zm3 7h1Zm-1 1h1Zm-1 1h1Zm3 0h2Zm6 0h1Zm-6 1h4Zm1 1h8Zm3 1h3Zm-2 7h2Z"/><path stroke="#A50000" d="M16 5.5h2m-5 1h3m-10 1h1m3 0h3m7 0h1m-15 1h1m2 0h1m11 0h1m-16 1h3m0 7h1m-2 1h1m-2 1h1m2 0h2m4 0h1m-7 1h4m-3 1h8m-5 1h3m-5 7h2"/><path fill="#000" d="M18 5.5h1Zm0 1h1Zm-1 4h1Zm0 1h1Zm2 6h2Zm0 1h3Zm-7 9h2Zm6 0h5Zm-4 1h4Z"/><path stroke="#fff" d="M18 5.5h1m-1 1h1m-2 4h1m-1 1h1m1 6h2m-2 1h3m-10 9h2m4 0h5m-9 1h4"/><path fill="#000" d="M16 6.5h2Zm-3 1h3Zm-3 1h3Zm-1 1h1Zm-2 1h2Zm16 12h3Zm-1 1h4Zm0 1h3Zm0 1h2Zm0 1h1Z"/><path stroke="#7B0000" d="M16 6.5h2m-5 1h3m-6 1h3m-4 1h1m-3 1h2m14 12h3m-4 1h4m-4 1h3m-3 1h2m-2 1h1"/><path fill="#000" d="M18 9.5h1Zm1 10h3Zm-17 3h2Zm2 1h2Zm-2 1h1Zm1 1h2Zm-1 2h1Zm1 1h1Zm4 0h1Zm19 0h1Zm-19 1h2Z"/><path stroke="#CEEFEF" d="M18 9.5h1m0 10h3m-20 3h2m0 1h2m-4 1h1m0 1h2m-3 2h1m0 1h1m3 0h1m18 0h1m-20 1h2"/><path fill="#000" d="M10 10.5h2Zm6 0h1Zm3 0h1Zm-9 1h3Zm4 0h3Zm5 0h1Zm-9 1h3Zm4 0h3Zm4 0h4Zm-5 1h4Zm1 1h4Zm2 1h3Zm-11 4h1Zm0 1h1Zm1 1h1Z"/><path stroke="#E7AD8C" d="M10 10.5h2m4 0h1m2 0h1m-10 1h3m1 0h3m2 0h1m-10 1h3m1 0h3m1 0h4m-9 1h4m-3 1h4m-2 1h3m-14 4h1m-1 1h1m0 1h1"/><path fill="#000" d="M9 11.5h1Zm0 1h1Zm1 1h3Zm9 0h3Zm-7 1h2Zm2 1h2Zm5 0h1Zm-3 1h2Zm-12 3h1Zm0 1h1Z"/><path stroke="#AD7B5A" d="M9 11.5h1m-1 1h1m0 1h3m6 0h3m-10 1h2m0 1h2m3 0h1m-4 1h2m-14 3h1m-1 1h1"/><path fill="#000" d="M10 16.5h2Zm-1 1h2Zm-1 1h2Zm-1 1h3Zm0 1h3Zm1 1h3Zm0 1h6Zm1 1h5Zm2 1h4Zm7 0h4Zm-6 1h10Zm2 1h4Z"/><path stroke="#0000E7" d="M10 16.5h2m-3 1h2m-3 1h2m-3 1h3m-3 1h3m-2 1h3m-3 1h6m-5 1h5m-3 1h4m3 0h4m-10 1h10m-8 1h4"/><path fill="#000" d="M3 21.5h3Zm3 1h1Zm1 3h3Zm19 0h2Zm-21 1h2Zm4 0h2Zm15 0h2Zm4 0h2Zm-23 1h1Zm2 0h1Zm3 0h1Zm14 0h1Zm2 0h1Zm3 0h1Zm-24 1h1Zm3 0h1Zm2 0h1Zm14 0h1Zm3 0h1Zm2 0h1Zm-24 1h1Zm5 0h1Zm15 0h1Zm3 0h1Zm-24 1h1Zm2 0h1Zm3 0h1Z"/><path stroke="#294A4A" d="M3 21.5h3m0 1h1m0 3h3m16 0h2m-23 1h2m2 0h2m13 0h2m2 0h2m-25 1h1m1 0h1m2 0h1m13 0h1m1 0h1m2 0h1m-25 1h1m2 0h1m1 0h1m13 0h1m2 0h1m1 0h1m-25 1h1m4 0h1m14 0h1m2 0h1m-25 1h1m1 0h1m2 0h1"/><path fill="#000" d="M19 21.5h4Zm-2 1h5Zm-3 1h8Zm1 1h3Z"/><path stroke="#0084FF" d="M19 21.5h4m-6 1h5m-8 1h8m-7 1h3"/><path fill="#000" d="M24 21.5h2Z"/><path stroke="#DE9C21" d="M24 21.5h2"/><path fill="#000" d="M3 24.5h3Zm-1 1h1Zm0 1h2Zm5 0h2Zm19 0h2Zm-23 1h1Zm3 0h1Zm3 0h1Zm16 0h1Zm3 0h1Zm-22 1h1Zm3 0h1Zm16 0h1Zm3 0h1Zm-22 1h1Zm3 0h1Zm17 0h2Zm-19 1h2Z"/><path stroke="#7B7B7B" d="M3 24.5h3m-4 1h1m-1 1h2m3 0h2m17 0h2m-25 1h1m2 0h1m2 0h1m15 0h1m2 0h1m-23 1h1m2 0h1m15 0h1m2 0h1m-23 1h1m2 0h1m16 0h2m-21 1h2"/><path fill="#000" d="M7 24.5h2Zm19 0h2Zm-20 1h1Zm19 0h1Zm3 0h1Z"/><path stroke="#4A6B6B" d="M7 24.5h2m17 0h2m-22 1h1m18 0h1m2 0h1"/></g><g id="frame-6"><path fill="#000" d="M14 1.5h4Zm-2 1h2Zm6 0h1Zm-8 1h2Zm9 0h1Zm-10 1h1Zm10 0h1Zm-11 1h1Zm11 0h2Zm-13 1h2Zm13 0h1Zm2 0h1Zm-16 1h1Zm12 0h2Zm5 0h1Zm-17 1h1Zm10 0h2Zm7 0h1Zm-17 1h1Zm8 0h2Zm4 0h5Zm-11 1h1Zm4 0h3Zm5 0h2Zm4 0h1Zm-13 1h7Zm9 0h1Zm4 0h1Zm2 0h1Zm-14 1h6Zm8 0h1Zm7 0h1Zm-14 1h4Zm10 0h2Zm4 0h1Zm-13 1h1Zm4 0h2Zm6 0h3Zm-11 1h1Zm7 0h2Zm5 0h1Zm-13 1h1Zm11 0h5Zm-11 1h1Zm11 0h1Zm5 0h1Zm-19 1h3Zm20 0h1Zm-21 1h1Zm3 0h1Zm17 0h1Zm-20 1h1Zm4 0h1Zm7 0h1Zm8 0h4Zm-14 1h1Zm7 0h2Zm5 0h2Zm6 0h1Zm-23 1h3Zm6 0h1Zm8 0h3Zm9 0h1Zm-24 1h1Zm4 0h4Zm20 0h3Zm-24 1h1Zm7 0h5Zm16 0h1Zm4 0h1Zm-27 1h2Zm6 0h1Zm5 0h2Zm9 0h1Zm3 0h1Zm5 0h1Zm-28 1h2Zm6 0h1Zm6 0h1Zm6 0h2Zm3 0h4Zm7 0h1Zm-28 1h2Zm6 0h3Zm4 0h1Zm2 0h6Zm11 0h2Zm5 0h1Zm-27 1h1Zm5 0h3Zm6 0h1Zm6 0h7Zm9 0h1Zm-25 1h2Zm4 0h3Zm6 0h6Zm12 0h3Zm-20 1h5Zm7 0h2Zm-4 1h5Z"/><path stroke="#002929" d="M14 1.5h4m-6 1h2m4 0h1m-9 1h2m7 0h1m-11 1h1m9 0h1m-12 1h1m10 0h2m-15 1h2m11 0h1m1 0h1m-17 1h1m11 0h2m3 0h1m-18 1h1m9 0h2m5 0h1m-18 1h1m7 0h2m2 0h5m-16 1h1m3 0h3m2 0h2m2 0h1m-14 1h7m2 0h1m3 0h1m1 0h1m-15 1h6m2 0h1m6 0h1m-15 1h4m6 0h2m2 0h1m-14 1h1m3 0h2m4 0h3m-14 1h1m6 0h2m3 0h1m-14 1h1m10 0h5m-16 1h1m10 0h1m4 0h1m-20 1h3m17 0h1m-22 1h1m2 0h1m16 0h1m-21 1h1m3 0h1m6 0h1m7 0h4m-18 1h1m6 0h2m3 0h2m4 0h1m-24 1h3m3 0h1m7 0h3m6 0h1m-25 1h1m3 0h4m16 0h3m-27 1h1m6 0h5m11 0h1m3 0h1m-28 1h2m4 0h1m4 0h2m7 0h1m2 0h1m4 0h1m-29 1h2m4 0h1m5 0h1m5 0h2m1 0h4m3 0h1m-29 1h2m4 0h3m1 0h1m1 0h6m5 0h2m3 0h1m-28 1h1m4 0h3m3 0h1m5 0h7m2 0h1m-26 1h2m2 0h3m3 0h6m6 0h3m-23 1h5m2 0h2m-6 1h5"/><path fill="#000" d="M14 2.5h4Zm-2 1h7Zm-2 1h9Zm-1 1h8Zm-1 1h6Zm-1 1h5Zm0 1h3Zm12 0h3Zm-10 7h4Zm0 1h3Zm5 0h3Zm-5 1h3Zm5 0h4Zm6 0h1Zm-6 1h7Zm2 1h5Z"/><path stroke="red" d="M14 2.5h4m-6 1h7m-9 1h9m-10 1h8m-9 1h6m-7 1h5m-5 1h3m9 0h3m-13 7h4m-4 1h3m2 0h3m-8 1h3m2 0h4m2 0h1m-7 1h7m-5 1h5"/><path fill="#000" d="M17 5.5h2Zm-3 1h3Zm6 0h1Zm-14 1h1Zm6 0h2Zm7 0h3Zm-13 1h1Zm4 0h3Zm7 0h2Zm-11 1h4Zm10 0h1Zm1 7h1Zm2 1h1Zm-11 1h3Zm0 1h3Zm6 0h2Zm-6 1h2Zm7 0h7Zm2 1h3Zm5 5h1Z"/><path stroke="#A50000" d="M17 5.5h2m-5 1h3m3 0h1m-15 1h1m5 0h2m5 0h3m-16 1h1m3 0h3m4 0h2m-13 1h4m6 0h1m0 7h1m1 1h1m-12 1h3m-3 1h3m3 0h2m-8 1h2m5 0h7m-5 1h3m2 5h1"/><path fill="#000" d="M17 6.5h2Zm-3 1h3Zm-1 1h2Zm-3 1h3Zm5 0h1Zm-8 1h3Zm16 11h1Zm0 1h3Zm0 1h3Zm0 1h2Zm0 1h2Z"/><path stroke="#7B0000" d="M17 6.5h2m-5 1h3m-4 1h2m-5 1h3m2 0h1m-9 1h3m13 11h1m-1 1h3m-3 1h3m-3 1h2m-2 1h2"/><path fill="#000" d="M13 10.5h1Zm7 0h1Zm-7 1h1Zm7 0h1Zm-7 1h1Zm-1 1h3Zm8 0h2Zm-10 1h3Zm5 0h2Zm2 1h3Zm-13 5h2Zm-1 1h1Zm3 0h1Zm1 1h1Z"/><path stroke="#AD7B5A" d="M13 10.5h1m6 0h1m-8 1h1m6 0h1m-8 1h1m-2 1h3m5 0h2m-12 1h3m2 0h2m0 1h3m-16 5h2m-3 1h1m2 0h1m0 1h1"/><path fill="#000" d="M14 10.5h1Zm3 0h1Zm-3 1h1Zm2 0h2Zm-2 1h1Zm2 0h6Zm-1 1h3Zm2 1h2Zm-13 5h2Zm2 1h1Zm1 1h1Zm1 1h1Z"/><path stroke="#E7AD8C" d="M14 10.5h1m2 0h1m-4 1h1m1 0h2m-4 1h1m1 0h6m-7 1h3m-1 1h2m-15 5h2m0 1h1m0 1h1m0 1h1"/><path fill="#000" d="M18 10.5h1Zm0 1h1Zm3 6h2Zm0 1h2Zm-1 9h5Zm-5 1h5Z"/><path stroke="#fff" d="M18 10.5h1m-1 1h1m2 6h2m-2 1h2m-3 9h5m-10 1h5"/><path fill="#000" d="M13 15.5h2Zm-5 1h1Zm4 0h2Zm-4 1h1Zm4 0h2Zm-5 1h1Zm4 0h3Zm-4 1h1Zm4 0h3Zm-1 1h4Zm-1 1h6Zm1 1h7Zm0 1h6Zm4 1h3Zm6 0h3Zm-5 1h7Zm0 1h5Z"/><path stroke="#0000E7" d="M13 15.5h2m-7 1h1m3 0h2m-6 1h1m3 0h2m-7 1h1m3 0h3m-7 1h1m3 0h3m-4 1h4m-5 1h6m-5 1h7m-7 1h6m-2 1h3m3 0h3m-8 1h7m-7 1h5"/><path fill="#000" d="M23 18.5h1Zm-2 1h2Zm-17 4h2Zm2 1h3Zm-2 1h2Zm2 1h2Zm22 1h1Zm-24 1h2Zm7 0h1Zm-5 1h2Zm6 0h1Z"/><path stroke="#CEEFEF" d="M23 18.5h1m-3 1h2m-19 4h2m0 1h3m-5 1h2m0 1h2m20 1h1m-25 1h2m5 0h1m-6 1h2m4 0h1"/><path fill="#000" d="M4 21.5h2Zm2 1h1Zm-3 2h1Zm9 1h1Zm14 0h2Zm3 0h1Zm-20 1h3Zm4 0h1Zm15 0h1Zm-16 2h1Zm15 0h1Zm-16 2h1Z"/><path stroke="#294A4A" d="M4 21.5h2m0 1h1m-4 2h1m8 1h1m13 0h2m1 0h1m-21 1h3m1 0h1m14 0h1m-17 2h1m14 0h1m-17 2h1"/><path fill="#000" d="M22 21.5h1Zm-2 1h3Zm-4 1h7Zm1 1h3Z"/><path stroke="#0084FF" d="M22 21.5h1m-3 1h3m-7 1h7m-6 1h3"/><path fill="#000" d="M24 21.5h2Z"/><path stroke="#DE9C21" d="M24 21.5h2"/><path fill="#000" d="M3 23.5h1Zm23 1h3Zm-17 1h3Z"/><path stroke="#4A6B6B" d="M3 23.5h1m22 1h3m-20 1h3"/><path fill="#000" d="M4 24.5h2Zm2 1h2Zm22 0h1Zm-24 1h2Zm8 0h1Zm15 0h1Zm2 0h1Zm-24 1h3Zm6 0h1Zm2 0h1Zm14 0h1Zm2 0h1Zm-23 1h1Zm7 0h1Zm15 0h1Zm-17 1h1Zm2 0h1Zm-1 1h1Z"/><path stroke="#7B7B7B" d="M4 24.5h2m0 1h2m20 0h1m-25 1h2m6 0h1m14 0h1m1 0h1m-25 1h3m3 0h1m1 0h1m13 0h1m1 0h1m-24 1h1m6 0h1m14 0h1m-18 1h1m1 0h1m-2 1h1"/></g><g id="frame-5"><path fill="#000" d="M14 1.5h4Zm-2 1h2Zm6 0h1Zm-8 1h2Zm9 0h1Zm-11 1h2Zm12 0h1Zm-13 1h1Zm13 0h1Zm-14 1h1Zm14 0h2Zm-15 1h1Zm15 0h1Zm2 0h1Zm-17 1h1Zm13 0h2Zm5 0h1Zm-18 1h1Zm11 0h2Zm6 0h1Zm-16 1h2Zm8 0h3Zm4 0h4Zm-11 1h2Zm5 0h5Zm8 0h1Zm-13 1h10Zm14 0h1Zm-13 1h6Zm8 0h1Zm5 0h1Zm-13 1h4Zm9 0h1Zm2 0h3Zm-12 1h1Zm7 0h2Zm6 0h1Zm-14 1h1Zm10 0h7Zm-11 1h1Zm14 0h1Zm4 0h1Zm-18 1h4Zm19 0h1Zm-19 1h1Zm4 0h1Zm15 0h1Zm-20 1h1Zm6 0h1Zm13 0h1Zm2 0h1Zm-14 1h1Zm5 0h2Zm5 0h3Zm4 0h1Zm-22 1h4Zm9 0h1Zm6 0h3Zm7 0h3Zm-23 1h1Zm5 0h6Zm17 0h1Zm4 0h1Zm-26 1h1Zm10 0h5Zm12 0h1Zm5 0h1Zm-27 1h3Zm9 0h1Zm6 0h1Zm7 0h3Zm5 0h1Zm-27 1h3Zm9 0h1Zm7 0h1Zm4 0h5Zm7 0h1Zm-27 1h3Zm9 0h5Zm7 0h4Zm7 0h2Zm3 0h2Zm-25 1h2Zm8 0h5Zm7 0h1Zm4 0h7Zm-17 1h3Zm6 0h5Zm7 0h4Zm-10 1h8Zm9 0h1Zm-5 1h5Z"/><path stroke="#002929" d="M14 1.5h4m-6 1h2m4 0h1m-9 1h2m7 0h1m-12 1h2m10 0h1m-14 1h1m12 0h1m-15 1h1m13 0h2m-17 1h1m14 0h1m1 0h1m-18 1h1m12 0h2m3 0h1m-19 1h1m10 0h2m4 0h1m-17 1h2m6 0h3m1 0h4m-15 1h2m3 0h5m3 0h1m-14 1h10m4 0h1m-14 1h6m2 0h1m4 0h1m-14 1h4m5 0h1m1 0h3m-15 1h1m6 0h2m4 0h1m-15 1h1m9 0h7m-18 1h1m13 0h1m3 0h1m-19 1h4m15 0h1m-20 1h1m3 0h1m14 0h1m-21 1h1m5 0h1m12 0h1m1 0h1m-15 1h1m4 0h2m3 0h3m1 0h1m-23 1h4m5 0h1m5 0h3m4 0h3m-26 1h1m4 0h6m11 0h1m3 0h1m-27 1h1m9 0h5m7 0h1m4 0h1m-28 1h3m6 0h1m5 0h1m6 0h3m2 0h1m-28 1h3m6 0h1m6 0h1m3 0h5m2 0h1m-28 1h3m6 0h5m2 0h4m3 0h2m1 0h2m-27 1h2m6 0h5m2 0h1m3 0h7m-24 1h3m3 0h5m2 0h4m-14 1h8m1 0h1m-6 1h5"/><path fill="#000" d="M14 2.5h4Zm-2 1h7Zm-2 1h10Zm-2 1h11Zm-1 1h10Zm0 1h7Zm1 1h4Zm12 1h2Zm-10 6h4Zm-1 1h4Zm-3 1h1Zm3 0h4Zm7 0h3Zm-1 1h7Zm3 1h5Z"/><path stroke="red" d="M14 2.5h4m-6 1h7m-9 1h10m-12 1h11m-12 1h10m-10 1h7m-6 1h4m8 1h2m-12 6h4m-5 1h4m-7 1h1m2 0h4m3 0h3m-4 1h7m-4 1h5"/><path fill="#000" d="M19 5.5h1Zm-2 1h3Zm-11 1h1Zm8 0h4Zm-8 1h2Zm6 0h4Zm8 0h3Zm-12 1h6Zm10 0h2Zm-9 1h3Zm11 7h2Zm-11 1h3Zm1 1h2Zm5 0h3Zm-4 1h1Zm5 0h7Zm2 1h3Z"/><path stroke="#A50000" d="M19 5.5h1m-3 1h3m-14 1h1m7 0h4m-12 1h2m4 0h4m4 0h3m-15 1h6m4 0h2m-11 1h3m8 7h2m-13 1h3m-2 1h2m3 0h3m-7 1h1m4 0h7m-5 1h3"/><path fill="#000" d="M18 7.5h2Zm3 0h1Zm-5 1h2Zm-10 1h2Zm8 0h2Zm-6 1h1Zm4 0h2Zm-3 1h3Zm14 11h2Zm0 1h1Zm0 1h1Zm0 1h1Z"/><path stroke="#7B0000" d="M18 7.5h2m1 0h1m-6 1h2m-12 1h2m6 0h2m-8 1h1m3 0h2m-5 1h3m11 11h2m-2 1h1m-1 1h1m-1 1h1"/><path fill="#000" d="M17 10.5h1Zm0 1h1Zm2 0h1Zm-2 1h1Zm3 0h1Zm-3 1h1Zm3 0h1Zm-8 1h4Zm4 1h4Zm-10 5h3Zm3 1h1Zm1 1h1Z"/><path stroke="#AD7B5A" d="M17 10.5h1m-1 1h1m1 0h1m-3 1h1m2 0h1m-4 1h1m2 0h1m-9 1h4m0 1h4m-14 5h3m0 1h1m0 1h1"/><path fill="#000" d="M18 11.5h1Zm0 1h2Zm-4 1h2Zm4 0h2Zm-2 1h1Zm2 0h1Zm-12 5h3Zm-1 1h1Zm4 0h1Zm1 1h1Zm1 1h1Z"/><path stroke="#E7AD8C" d="M18 11.5h1m-1 1h2m-6 1h2m2 0h2m-4 1h1m1 0h1m-13 5h3m-4 1h1m3 0h1m0 1h1m0 1h1"/><path fill="#000" d="M8 15.5h2Zm-1 1h2Zm6 0h3Zm-6 1h2Zm6 0h3Zm-1 1h3Zm0 1h3Zm0 1h4Zm0 1h4Zm1 1h5Zm0 1h5Zm4 1h3Zm1 1h5Zm1 1h3Z"/><path stroke="#0000E7" d="M8 15.5h2m-3 1h2m4 0h3m-9 1h2m4 0h3m-4 1h3m-3 1h3m-3 1h4m-4 1h4m-3 1h5m-5 1h5m-1 1h3m-2 1h5m-4 1h3"/><path fill="#000" d="M22 17.5h1Zm0 1h2Zm0 9h3Zm-3 1h3Z"/><path stroke="#fff" d="M22 17.5h1m-1 1h2m-2 9h3m-6 1h3"/><path fill="#000" d="M23 19.5h1Zm-18 4h2Zm2 1h5Zm-2 1h3Zm3 1h3Zm20 0h1Zm-23 2h3Zm3 1h3Zm8 0h1Z"/><path stroke="#CEEFEF" d="M23 19.5h1m-19 4h2m0 1h5m-7 1h3m0 1h3m17 0h1m-24 2h3m0 1h3m5 0h1"/><path fill="#000" d="M24 20.5h1Zm0 1h1Z"/><path stroke="#DE9C21" d="M24 20.5h1m-1 1h1"/><path fill="#000" d="M4 21.5h5Zm3 1h3Zm-4 2h2Zm22 0h3Zm-9 1h1Zm12 0h1Zm-16 1h4Zm5 0h1Zm-1 1h1Zm11 0h1Zm-11 3h1Z"/><path stroke="#294A4A" d="M4 21.5h5m-2 1h3m-7 2h2m20 0h3m-12 1h1m11 0h1m-17 1h4m1 0h1m-2 1h1m10 0h1m-12 3h1"/><path fill="#000" d="M21 22.5h2Zm-3 1h5Zm2 1h3Z"/><path stroke="#0084FF" d="M21 22.5h2m-5 1h5m-3 1h3"/><path fill="#000" d="M3 23.5h2Zm22 0h3Zm-13 2h4Z"/><path stroke="#4A6B6B" d="M3 23.5h2m20 0h3m-16 2h4"/><path fill="#000" d="M5 24.5h2Zm23 0h1Zm-20 1h3Zm19 0h1Zm-22 1h3Zm11 0h1Zm11 0h1Zm-21 1h5Zm11 0h1Zm-9 1h2Zm8 0h2Zm1 1h1Z"/><path stroke="#7B7B7B" d="M5 24.5h2m21 0h1m-21 1h3m16 0h1m-23 1h3m8 0h1m10 0h1m-22 1h5m6 0h1m-10 1h2m6 0h2m-1 1h1"/></g><g id="frame-4"><path fill="#000" d="M14 1.5h4Zm-2 1h2Zm6 0h1Zm-8 1h2Zm9 0h1Zm-10 1h1Zm11 0h1Zm-12 1h1Zm13 0h1Zm-14 1h1Zm14 0h2Zm-15 1h1Zm15 0h1Zm2 0h1Zm-17 1h2Zm15 0h1Zm3 0h1Zm-18 1h1Zm2 0h1Zm12 0h4Zm-14 1h1Zm2 0h1Zm11 0h1Zm2 0h2Zm-15 1h1Zm2 0h4Zm9 0h3Zm5 0h1Zm-15 1h1Zm2 0h10Zm13 0h1Zm-15 1h1Zm2 0h9Zm13 0h1Zm-14 1h1Zm2 0h7Zm10 0h2Zm-13 1h1Zm12 0h2Zm-13 1h1Zm15 0h1Zm-16 1h1Zm17 0h2Zm-17 1h1Zm2 0h3Zm17 0h1Zm-19 1h2Zm5 0h2Zm14 0h1Zm-19 1h1Zm7 0h1Zm6 0h1Zm6 0h1Zm-20 1h1Zm9 0h1Zm6 0h2Zm4 0h2Zm-21 1h8Zm12 0h1Zm7 0h2Zm3 0h4Zm-23 1h1Zm4 0h1Zm5 0h6Zm14 0h1Zm4 0h1Zm-27 1h1Zm5 0h1Zm8 0h1Zm2 0h5Zm8 0h1Zm4 0h1Zm-27 1h4Zm5 0h1Zm7 0h1Zm2 0h1Zm6 0h1Zm3 0h2Zm4 0h1Zm-27 1h4Zm5 0h1Zm7 0h1Zm2 0h1Zm7 0h2Zm3 0h1Zm3 0h1Zm-27 1h4Zm5 0h1Zm7 0h1Zm2 0h5Zm7 0h1Zm3 0h2Zm3 0h1Zm-26 1h3Zm11 0h1Zm2 0h5Zm7 0h1Zm2 0h4Zm-18 1h4Zm9 0h5Zm7 0h2Zm-12 1h4Zm5 0h7Zm1 1h5Z"/><path stroke="#002929" d="M14 1.5h4m-6 1h2m4 0h1m-9 1h2m7 0h1m-11 1h1m10 0h1m-13 1h1m12 0h1m-15 1h1m13 0h2m-17 1h1m14 0h1m1 0h1m-18 1h2m13 0h1m2 0h1m-19 1h1m1 0h1m11 0h4m-18 1h1m1 0h1m10 0h1m1 0h2m-17 1h1m1 0h4m5 0h3m2 0h1m-16 1h1m1 0h10m3 0h1m-16 1h1m1 0h9m4 0h1m-15 1h1m1 0h7m3 0h2m-15 1h1m11 0h2m-15 1h1m14 0h1m-17 1h1m16 0h2m-19 1h1m1 0h3m14 0h1m-20 1h2m3 0h2m12 0h1m-20 1h1m6 0h1m5 0h1m5 0h1m-21 1h1m8 0h1m5 0h2m2 0h2m-23 1h8m4 0h1m6 0h2m1 0h4m-27 1h1m3 0h1m4 0h6m8 0h1m3 0h1m-28 1h1m4 0h1m7 0h1m1 0h5m3 0h1m3 0h1m-28 1h4m1 0h1m6 0h1m1 0h1m5 0h1m2 0h2m2 0h1m-28 1h4m1 0h1m6 0h1m1 0h1m6 0h2m1 0h1m2 0h1m-28 1h4m1 0h1m6 0h1m1 0h5m2 0h1m2 0h2m1 0h1m-27 1h3m8 0h1m1 0h5m2 0h1m1 0h4m-22 1h4m5 0h5m2 0h2m-14 1h4m1 0h7m-6 1h5"/><path fill="#000" d="M14 2.5h4Zm-2 1h7Zm-2 1h10Zm-1 1h12Zm-1 1h13Zm0 1h12Zm1 1h10Zm14 0h1Zm-11 1h5Zm-2 6h6Zm-3 1h1Zm3 0h5Zm8 0h2Zm-12 1h1Zm6 0h3Zm6 0h3Zm-4 1h1Zm4 0h4Zm2 1h4Zm1 1h3Z"/><path stroke="red" d="M14 2.5h4m-6 1h7m-9 1h10m-11 1h12m-13 1h13m-13 1h12m-11 1h10m4 0h1m-12 1h5m-7 6h6m-9 1h1m2 0h5m3 0h2m-14 1h1m5 0h3m3 0h3m-7 1h1m3 0h4m-2 1h4m-3 1h3"/><path fill="#000" d="M7 7.5h1Zm13 0h1Zm2 0h1Zm-14 1h1Zm11 0h2Zm3 0h1Zm-13 1h3Zm8 0h3Zm-8 1h10Zm3 1h5Zm8 5h1Zm-13 1h1Zm3 0h2Zm11 0h1Zm-15 1h1Zm4 0h4Zm12 0h2Zm-10 1h2Zm5 0h3Zm-4 1h1Zm4 0h1Zm2 0h2Zm-2 1h2Zm4 0h2Zm-3 1h3Zm6 4h1Zm-1 1h1Zm-18 1h2Zm9 1h1Z"/><path stroke="#A50000" d="M7 7.5h1m12 0h1m1 0h1m-15 1h1m10 0h2m1 0h1m-14 1h3m5 0h3m-11 1h10m-7 1h5m3 5h1m-14 1h1m2 0h2m9 0h1m-16 1h1m3 0h4m8 0h2m-12 1h2m3 0h3m-7 1h1m3 0h1m1 0h2m-4 1h2m2 0h2m-5 1h3m3 4h1m-2 1h1m-19 1h2m7 1h1"/><path fill="#000" d="M7 9.5h1Zm0 1h1Zm13 0h1Zm0 1h2Zm-1 1h3Zm-1 1h2Zm-1 1h1Zm-10 5h3Zm-1 1h1Zm4 0h2Zm-5 1h1Zm7 0h1Z"/><path stroke="#E7AD8C" d="M7 9.5h1m-1 1h1m12 0h1m-1 1h2m-3 1h3m-4 1h2m-3 1h1m-11 5h3m-4 1h1m3 0h2m-7 1h1m6 0h1"/><path fill="#000" d="M7 11.5h1Zm1 1h1Zm0 1h1Zm12 0h2Zm-11 1h1Zm9 0h2Zm-2 1h3Zm-9 5h3Zm3 1h2Z"/><path stroke="#AD7B5A" d="M7 11.5h1m0 1h1m-1 1h1m11 0h2m-13 1h1m8 0h2m-4 1h3m-12 5h3m0 1h2"/><path fill="#000" d="M8 15.5h2Zm15 7h1Zm-1 1h2Z"/><path stroke="#0084FF" d="M8 15.5h2m13 7h1m-2 1h2"/><path fill="#000" d="M8 16.5h2Zm7 0h3Zm-7 1h2Zm7 0h3Zm0 1h3Zm-1 1h3Zm0 1h3Zm0 1h3Zm1 1h3Zm1 1h6Zm5 1h3Zm1 1h2Z"/><path stroke="#0000E7" d="M8 16.5h2m5 0h3m-10 1h2m5 0h3m-3 1h3m-4 1h3m-3 1h3m-3 1h3m-2 1h3m-2 1h6m-1 1h3m-2 1h2"/><path fill="#000" d="M6 21.5h4Zm4 1h4Zm17 1h1Zm-25 1h3Zm13 0h1Zm10 0h1Zm2 0h1Zm-7 1h1Zm-4 1h4Zm5 0h1Zm5 0h1Zm-6 1h2Zm7 0h1Zm-6 1h1Zm0 1h1Z"/><path stroke="#294A4A" d="M6 21.5h4m0 1h4m13 1h1m-26 1h3m10 0h1m9 0h1m1 0h1m-8 1h1m-5 1h4m1 0h1m4 0h1m-7 1h2m5 0h1m-7 1h1m-1 1h1"/><path fill="#000" d="M2 23.5h3Zm23 0h2Zm-9 2h4Z"/><path stroke="#4A6B6B" d="M2 23.5h3m20 0h2m-11 2h4"/><path fill="#000" d="M6 23.5h4Zm-1 1h1Zm5 0h4Zm-5 1h1Zm2 0h3Zm7 0h1Zm13 0h1Zm-22 1h1Zm5 0h3Zm4 0h1Zm-9 1h1Zm9 0h1Zm-7 1h3Zm7 0h1Zm6 0h1Zm-10 1h4Z"/><path stroke="#CEEFEF" d="M6 23.5h4m-5 1h1m4 0h4m-9 1h1m1 0h3m4 0h1m12 0h1m-23 1h1m4 0h3m1 0h1m-10 1h1m8 0h1m-8 1h3m4 0h1m5 0h1m-11 1h4"/><path fill="#000" d="M7 24.5h3Zm19 0h1Zm-16 1h3Zm16 0h1Zm-19 1h3Zm13 0h1Zm7 0h1Zm-19 1h5Zm2 1h2Zm10 1h1Z"/><path stroke="#7B7B7B" d="M7 24.5h3m16 0h1m-17 1h3m13 0h1m-20 1h3m10 0h1m6 0h1m-20 1h5m-3 1h2m8 1h1"/><path fill="#000" d="M24 27.5h1Zm-1 1h1Z"/><path stroke="#fff" d="M24 27.5h1m-2 1h1"/></g><g id="frame-3"><path fill="#000" d="M14 1.5h4Zm-2 1h2Zm6 0h2Zm-8 1h2Zm10 0h2Zm-11 1h1Zm13 0h1Zm-14 1h1Zm14 0h1Zm-14 1h1Zm15 0h1Zm-16 1h1Zm16 0h2Zm-16 1h2Zm16 0h1Zm2 0h1Zm-18 1h1Zm2 0h1Zm12 0h4Zm-14 1h1Zm2 0h2Zm11 0h1Zm3 0h1Zm-16 1h1Zm2 0h5Zm10 0h2Zm4 0h1Zm-15 1h1Zm2 0h10Zm13 0h1Zm-15 1h1Zm2 0h9Zm12 0h1Zm-14 1h2Zm3 0h7Zm10 0h1Zm-14 1h1Zm13 0h1Zm-14 1h1Zm15 0h1Zm-15 1h1Zm16 0h1Zm-17 1h1Zm4 0h4Zm13 0h1Zm-17 1h1Zm3 0h1Zm5 0h1Zm10 0h1Zm-18 1h1Zm2 0h1Zm7 0h1Zm9 0h1Zm-17 1h1Zm9 0h1Zm4 0h1Zm4 0h4Zm-20 1h8Zm13 0h1Zm4 0h4Zm7 0h1Zm-25 1h1Zm4 0h1Zm5 0h7Zm11 0h1Zm-21 1h1Zm6 0h1Zm9 0h11Zm-15 1h5Zm6 0h1Zm8 0h1Zm3 0h1Zm6 0h3Zm-23 1h5Zm6 0h1Zm8 0h1Zm3 0h1Zm7 0h2Zm-24 1h5Zm6 0h1Zm8 0h1Zm3 0h5Zm7 0h3Zm-24 1h5Zm14 0h1Zm3 0h5Zm7 0h1Zm-23 1h4Zm5 0h4Zm11 0h5Zm7 0h1Zm-14 1h6Zm7 0h7Zm1 1h5Z"/><path stroke="#002929" d="M14 1.5h4m-6 1h2m4 0h2m-10 1h2m8 0h2m-13 1h1m12 0h1m-15 1h1m13 0h1m-15 1h1m14 0h1m-17 1h1m15 0h2m-18 1h2m14 0h1m1 0h1m-19 1h1m1 0h1m11 0h4m-18 1h1m1 0h2m9 0h1m2 0h1m-17 1h1m1 0h5m5 0h2m2 0h1m-16 1h1m1 0h10m3 0h1m-16 1h1m1 0h9m3 0h1m-15 1h2m1 0h7m3 0h1m-15 1h1m12 0h1m-15 1h1m14 0h1m-16 1h1m15 0h1m-18 1h1m3 0h4m9 0h1m-18 1h1m2 0h1m4 0h1m9 0h1m-19 1h1m1 0h1m6 0h1m8 0h1m-18 1h1m8 0h1m3 0h1m3 0h4m-24 1h8m5 0h1m3 0h4m3 0h1m-26 1h1m3 0h1m4 0h7m4 0h1m-22 1h1m5 0h1m8 0h11m-26 1h5m1 0h1m7 0h1m2 0h1m5 0h3m-26 1h5m1 0h1m7 0h1m2 0h1m6 0h2m-26 1h5m1 0h1m7 0h1m2 0h5m2 0h3m-27 1h5m9 0h1m2 0h5m2 0h1m-24 1h4m1 0h4m7 0h5m2 0h1m-15 1h6m1 0h7m-6 1h5"/><path fill="#000" d="M14 2.5h4Zm-2 1h8Zm-2 1h12Zm-1 1h13Zm0 1h13Zm1 1h12Zm1 1h9Zm3 1h5Zm-6 6h1Zm3 0h5Zm-4 1h2Zm4 0h6Zm9 0h1Zm-13 1h2Zm8 0h2Zm5 0h2Zm-1 1h3Zm1 1h3Zm2 1h1Zm-5 8h1Z"/><path stroke="red" d="M14 2.5h4m-6 1h8m-10 1h12m-13 1h13m-13 1h13m-12 1h12m-11 1h9m-6 1h5m-11 6h1m2 0h5m-9 1h2m2 0h6m3 0h1m-14 1h2m6 0h2m3 0h2m-3 1h3m-2 1h3m-1 1h1m-6 8h1"/><path fill="#000" d="M22 6.5h1Zm-14 1h2Zm14 0h1Zm-13 1h2Zm11 0h3Zm4 0h1Zm-14 1h4Zm9 0h2Zm-8 1h9Zm3 1h5Zm-3 6h4Zm-5 1h2Zm7 0h3Zm-7 1h2Zm8 0h2Zm5 0h1Zm-13 1h1Zm9 0h1Zm4 0h3Zm1 1h3Zm-1 1h1Zm-13 6h2Zm10 1h2Z"/><path stroke="#A50000" d="M22 6.5h1m-15 1h2m12 0h1m-14 1h2m9 0h3m1 0h1m-15 1h4m5 0h2m-10 1h9m-6 1h5m-8 6h4m-9 1h2m5 0h3m-10 1h2m6 0h2m3 0h1m-14 1h1m8 0h1m3 0h3m-2 1h3m-4 1h1m-14 6h2m8 1h2"/><path fill="#000" d="M8 9.5h1Zm0 1h1Zm13 0h2Zm0 1h2Zm-1 1h2Zm-1 1h2Zm-1 1h2Zm-9 5h4Zm-1 1h1Zm4 0h2Zm-5 1h1Zm6 0h2Z"/><path stroke="#E7AD8C" d="M8 9.5h1m-1 1h1m12 0h2m-2 1h2m-3 1h2m-3 1h2m-3 1h2m-11 5h4m-5 1h1m3 0h2m-7 1h1m5 0h2"/><path fill="#000" d="M8 11.5h1Zm1 1h1Zm13 0h1Zm-13 1h1Zm12 0h1Zm-11 1h1Zm10 0h1Zm-4 1h4Zm-7 5h3Zm3 1h1Z"/><path stroke="#AD7B5A" d="M8 11.5h1m0 1h1m12 0h1m-14 1h1m11 0h1m-12 1h1m9 0h1m-5 1h4m-11 5h3m0 1h1"/><path fill="#000" d="M9 15.5h2Z"/><path stroke="#0084FF" d="M9 15.5h2"/><path fill="#000" d="M9 16.5h2Zm8 0h3Zm-8 1h2Zm8 0h3Zm-9 1h1Zm8 0h3Zm0 1h3Zm0 1h3Zm0 1h3Zm1 1h2Zm1 1h4Z"/><path stroke="#0000E7" d="M9 16.5h2m6 0h3m-11 1h2m6 0h3m-12 1h1m7 0h3m-3 1h3m-3 1h3m-3 1h3m-2 1h2m-1 1h4"/><path fill="#000" d="M8 21.5h4Zm3 1h5Zm12 1h4Zm-21 1h4Zm21 1h1Zm-4 1h4Zm5 0h1Zm-1 1h2Zm1 1h1Zm0 1h1Z"/><path stroke="#294A4A" d="M8 21.5h4m-1 1h5m7 1h4m-25 1h4m17 1h1m-5 1h4m1 0h1m-2 1h2m-1 1h1m-1 1h1"/><path fill="#000" d="M24 22.5h3Zm-21 1h3Zm16 2h4Z"/><path stroke="#4A6B6B" d="M24 22.5h3m-24 1h3m13 2h4"/><path fill="#000" d="M7 23.5h4Zm-1 1h1Zm5 0h5Zm-5 1h1Zm2 0h3Zm8 0h1Zm-10 1h1Zm5 0h4Zm5 0h2Zm-10 1h1Zm10 0h1Zm-8 1h3Zm8 0h1Zm7 0h1Zm-12 1h5Z"/><path stroke="#CEEFEF" d="M7 23.5h4m-5 1h1m4 0h5m-10 1h1m1 0h3m5 0h1m-11 1h1m4 0h4m1 0h2m-12 1h1m9 0h1m-9 1h3m5 0h1m6 0h1m-13 1h5"/><path fill="#000" d="M27 23.5h1Zm-19 1h3Zm19 0h1Zm-16 1h4Zm16 0h1Zm-19 1h3Zm15 0h1Zm4 0h1Zm-18 1h6Zm2 1h3Zm12 1h1Z"/><path stroke="#7B7B7B" d="M27 23.5h1m-20 1h3m16 0h1m-17 1h4m12 0h1m-20 1h3m12 0h1m3 0h1m-19 1h6m-4 1h3m9 1h1"/></g><g id="frame-2"><path fill="#000" d="M15 1.5h4Zm-2 1h2Zm6 0h2Zm-7 1h1Zm9 0h2Zm-10 1h1Zm12 0h1Zm-13 1h1Zm13 0h1Zm-14 1h1Zm15 0h1Zm-15 1h1Zm15 0h1Zm-16 1h3Zm17 0h1Zm-18 1h1Zm3 0h2Zm12 0h4Zm-15 1h1Zm3 0h3Zm11 0h1Zm3 0h1Zm-17 1h1Zm4 0h5Zm8 0h3Zm5 0h1Zm-16 1h2Zm3 0h10Zm13 0h1Zm-15 1h1Zm3 0h8Zm11 0h1Zm-14 1h3Zm4 0h6Zm9 0h1Zm-14 1h1Zm11 0h4Zm-12 1h1Zm16 0h1Zm-17 1h1Zm17 0h1Zm-17 1h1Zm5 0h5Zm13 0h1Zm-18 1h1Zm4 0h1Zm6 0h1Zm8 0h1Zm-19 1h2Zm3 0h2Zm9 0h1Zm6 0h1Zm-19 1h1Zm4 0h1Zm10 0h1Zm2 0h7Zm-17 1h11Zm16 0h1Zm3 0h1Zm5 0h1Zm-25 1h1Zm5 0h2Zm7 0h14Zm-13 1h1Zm6 0h1Zm2 0h1Zm10 0h3Zm-18 1h6Zm8 0h1Zm9 0h1Zm3 0h1Zm-20 1h6Zm8 0h1Zm9 0h1Zm3 0h6Zm-20 1h6Zm8 0h1Zm9 0h1Zm3 0h6Zm-20 1h6Zm17 0h1Zm3 0h6Zm-19 1h5Zm6 0h6Zm13 0h7Zm-7 1h7Zm8 0h5Z"/><path stroke="#002929" d="M15 1.5h4m-6 1h2m4 0h2m-9 1h1m8 0h2m-12 1h1m11 0h1m-14 1h1m12 0h1m-15 1h1m14 0h1m-16 1h1m14 0h1m-17 1h3m14 0h1m-19 1h1m2 0h2m10 0h4m-19 1h1m2 0h3m8 0h1m2 0h1m-18 1h1m3 0h5m3 0h3m2 0h1m-17 1h2m1 0h10m3 0h1m-16 1h1m2 0h8m3 0h1m-15 1h3m1 0h6m3 0h1m-15 1h1m10 0h4m-16 1h1m15 0h1m-18 1h1m16 0h1m-18 1h1m4 0h5m8 0h1m-19 1h1m3 0h1m5 0h1m7 0h1m-20 1h2m1 0h2m7 0h1m5 0h1m-20 1h1m3 0h1m9 0h1m1 0h7m-24 1h11m5 0h1m2 0h1m4 0h1m-26 1h1m4 0h2m5 0h14m-27 1h1m5 0h1m1 0h1m9 0h3m-21 1h6m2 0h1m8 0h1m2 0h1m-21 1h6m2 0h1m8 0h1m2 0h6m-26 1h6m2 0h1m8 0h1m2 0h6m-26 1h6m11 0h1m2 0h6m-25 1h5m1 0h6m7 0h7m-14 1h7m1 0h5"/><path fill="#000" d="M15 2.5h4Zm-2 1h8Zm-1 1h11Zm-1 1h12Zm0 1h13Zm1 1h10Zm1 1h8Zm3 1h3Zm-7 6h1Zm3 0h7Zm-4 1h2Zm4 0h6Zm9 0h2Zm-14 1h2Zm14 0h2Zm-14 1h1Zm14 0h3Zm0 1h3Zm-14 8h1Zm13 1h1Z"/><path stroke="red" d="M15 2.5h4m-6 1h8m-9 1h11m-12 1h12m-12 1h13m-12 1h10m-9 1h8m-5 1h3m-10 6h1m2 0h7m-11 1h2m2 0h6m3 0h2m-16 1h2m12 0h2m-16 1h1m13 0h3m-3 1h3m-17 8h1m12 1h1"/><path fill="#000" d="M10 6.5h1Zm0 1h2Zm12 0h2Zm-11 1h2Zm10 0h4Zm-9 1h4Zm7 0h3Zm-6 1h8Zm3 1h3Zm-4 6h6Zm-4 1h1Zm8 0h1Zm4 0h1Zm-13 1h2Zm13 0h1Zm0 1h3Zm-13 8h3Zm11 1h3Z"/><path stroke="#A50000" d="M10 6.5h1m-1 1h2m10 0h2m-13 1h2m8 0h4m-13 1h4m3 0h3m-9 1h8m-5 1h3m-7 6h6m-10 1h1m7 0h1m3 0h1m-14 1h2m11 0h1m-1 1h3m-16 8h3m8 1h3"/><path fill="#000" d="M8 9.5h2Zm1 1h1Zm13 0h2Zm-12 1h1Zm12 0h2Zm-1 1h2Zm-1 1h2Zm-9 6h5Zm-1 1h1Zm5 0h2Zm-6 1h1Zm7 0h2Z"/><path stroke="#E7AD8C" d="M8 9.5h2m-1 1h1m12 0h2m-14 1h1m11 0h2m-3 1h2m-3 1h2m-11 6h5m-6 1h1m4 0h2m-8 1h1m6 0h2"/><path fill="#000" d="M8 10.5h1Zm0 1h2Zm2 1h1Zm13 0h1Zm-13 1h2Zm12 0h1Zm-10 1h1Zm7 0h3Zm-8 6h4Zm-1 1h1Zm4 0h2Z"/><path stroke="#AD7B5A" d="M8 10.5h1m-1 1h2m0 1h1m12 0h1m-14 1h2m10 0h1m-11 1h1m6 0h3m-11 6h4m-5 1h1m3 0h2"/><path fill="#000" d="M10 15.5h2Z"/><path stroke="#0084FF" d="M10 15.5h2"/><path fill="#000" d="M10 16.5h2Zm8 0h3Zm-9 1h3Zm9 0h3Zm-9 1h2Zm8 0h3Zm-8 1h1Zm8 0h3Zm-10 1h1Zm11 0h2Zm-11 1h1Zm12 0h1Zm1 1h2Z"/><path stroke="#0000E7" d="M10 16.5h2m6 0h3m-12 1h3m6 0h3m-12 1h2m6 0h3m-11 1h1m7 0h3m-13 1h1m10 0h2m-13 1h1m11 0h1m0 1h2"/><path fill="#000" d="M5 21.5h2Zm18 1h4Zm-20 1h4Zm19 1h5Z"/><path stroke="#4A6B6B" d="M5 21.5h2m16 1h4m-24 1h4m15 1h5"/><path fill="#000" d="M11 21.5h3Zm3 1h5Zm-12 2h5Zm25 0h1Zm-5 1h5Z"/><path stroke="#294A4A" d="M11 21.5h3m0 1h5m-17 2h5m20 0h1m-6 1h5"/><path fill="#000" d="M9 23.5h5Zm-1 1h1Zm6 0h5Zm-7 1h2Zm3 0h4Zm9 0h1Zm-11 1h1Zm6 0h4Zm5 0h2Zm-11 1h1Zm11 0h1Zm-9 1h4Zm9 0h1Zm-5 1h4Z"/><path stroke="#CEEFEF" d="M9 23.5h5m-6 1h1m5 0h5m-12 1h2m1 0h4m5 0h1m-12 1h1m5 0h4m1 0h2m-13 1h1m10 0h1m-10 1h4m5 0h1m-6 1h4"/><path fill="#000" d="M10 24.5h4Zm4 1h4Zm6 0h1Zm7 0h1Zm-17 1h4Zm17 0h1Zm-16 1h7Zm16 0h1Zm-13 1h3Zm13 0h1Z"/><path stroke="#7B7B7B" d="M10 24.5h4m0 1h4m2 0h1m6 0h1m-18 1h4m13 0h1m-17 1h7m9 0h1m-14 1h3m10 0h1"/></g><g id="frame-1"><path fill="#000" d="M14 1.5h4Zm-2 1h2Zm6 0h2Zm-7 1h1Zm9 0h1Zm-10 1h1Zm11 0h1Zm-12 1h1Zm13 0h1Zm-14 1h1Zm15 0h1Zm-15 1h1Zm15 0h1Zm-15 1h1Zm15 0h1Zm-16 1h1Zm2 0h1Zm13 0h1Zm2 0h1Zm-18 1h1Zm4 0h2Zm10 0h2Zm5 0h1Zm-19 1h1Zm4 0h12Zm15 0h1Zm-18 1h1Zm4 0h10Zm13 0h1Zm-16 1h2Zm4 0h8Zm10 0h2Zm-13 1h1Zm4 0h6Zm9 0h1Zm-13 1h2Zm12 0h2Zm-13 1h1Zm15 0h1Zm-16 1h1Zm17 0h1Zm-17 1h1Zm6 0h6Zm11 0h1Zm-17 1h1Zm5 0h1Zm7 0h1Zm5 0h1Zm-16 1h1Zm2 0h2Zm10 0h2Zm3 0h1Zm-17 1h3Zm4 0h1Zm11 0h1Zm2 0h3Zm-18 1h1Zm21 0h1Zm-23 1h5Zm6 0h14Zm15 0h5Zm-22 1h1Zm6 0h3Zm13 0h3Zm8 0h1Zm-27 1h1Zm6 0h1Zm3 0h1Zm9 0h1Zm3 0h1Zm6 0h1Zm-27 1h7Zm9 0h1Zm9 0h1Zm3 0h7Zm-21 1h7Zm9 0h1Zm9 0h1Zm3 0h7Zm-21 1h7Zm9 0h1Zm9 0h1Zm3 0h7Zm-21 1h7Zm21 0h7Zm-20 1h5Zm6 0h14Zm15 0h5Z"/><path stroke="#002929" d="M14 1.5h4m-6 1h2m4 0h2m-9 1h1m8 0h1m-11 1h1m10 0h1m-13 1h1m12 0h1m-15 1h1m14 0h1m-16 1h1m14 0h1m-16 1h1m14 0h1m-17 1h1m1 0h1m12 0h1m1 0h1m-19 1h1m3 0h2m8 0h2m3 0h1m-20 1h1m3 0h12m3 0h1m-19 1h1m3 0h10m3 0h1m-17 1h2m2 0h8m2 0h2m-15 1h1m3 0h6m3 0h1m-14 1h2m10 0h2m-15 1h1m14 0h1m-17 1h1m16 0h1m-18 1h1m5 0h6m5 0h1m-18 1h1m4 0h1m6 0h1m4 0h1m-17 1h1m1 0h2m8 0h2m1 0h1m-18 1h3m1 0h1m10 0h1m1 0h3m-21 1h1m20 0h1m-24 1h5m1 0h14m1 0h5m-27 1h1m5 0h3m10 0h3m5 0h1m-28 1h1m5 0h1m2 0h1m8 0h1m2 0h1m5 0h1m-28 1h7m2 0h1m8 0h1m2 0h7m-28 1h7m2 0h1m8 0h1m2 0h7m-28 1h7m2 0h1m8 0h1m2 0h7m-28 1h7m14 0h7m-27 1h5m1 0h14m1 0h5"/><path fill="#000" d="M14 2.5h4Zm-2 1h8Zm-1 1h10Zm-1 1h12Zm-1 1h14Zm1 1h12Zm2 1h8Zm1 7h6Zm-4 1h2Zm4 0h6Zm8 0h2Zm-13 1h3Zm13 0h3Zm-13 1h3Zm13 0h3Zm-13 1h3Zm13 0h3Zm-12 9h1Zm13 0h1Z"/><path stroke="red" d="M14 2.5h4m-6 1h8m-9 1h10m-11 1h12m-13 1h14m-13 1h12m-10 1h8m-7 7h6m-10 1h2m2 0h6m2 0h2m-15 1h3m10 0h3m-16 1h3m10 0h3m-16 1h3m10 0h3m-15 9h1m12 0h1"/><path fill="#000" d="M9 7.5h1Zm13 0h1Zm-13 1h3Zm11 0h3Zm-10 1h12Zm2 1h8Zm1 7h6Zm-4 3h1Zm13 0h1Zm-13 9h3Zm11 0h3Z"/><path stroke="#A50000" d="M9 7.5h1m12 0h1m-14 1h3m8 0h3m-13 1h12m-10 1h8m-7 7h6m-10 3h1m12 0h1m-14 9h3m8 0h3"/><path fill="#000" d="M8 9.5h1Zm15 0h1Zm-16 1h3Zm15 0h3Zm-14 1h2Zm14 0h2Zm-12 1h1Zm11 0h1Zm-10 1h1Zm9 0h1Zm-8 1h1Zm7 0h1Zm-6 5h6Zm-1 1h2Zm6 0h2Zm-7 1h2Zm8 0h2Z"/><path stroke="#E7AD8C" d="M8 9.5h1m14 0h1m-17 1h3m12 0h3m-17 1h2m12 0h2m-14 1h1m10 0h1m-11 1h1m8 0h1m-9 1h1m6 0h1m-7 5h6m-7 1h2m4 0h2m-9 1h2m6 0h2"/><path fill="#000" d="M7 11.5h1Zm17 0h1Zm-16 1h2Zm14 0h2Zm-12 1h1Zm11 0h1Zm-11 1h2Zm10 0h2Zm-9 1h2Zm8 0h2Zm-5 5h4Zm-1 1h6Z"/><path stroke="#AD7B5A" d="M7 11.5h1m16 0h1m-17 1h2m12 0h2m-14 1h1m10 0h1m-12 1h2m8 0h2m-11 1h2m6 0h2m-7 5h4m-5 1h6"/><path fill="#000" d="M11 16.5h2Zm8 0h2Zm-8 1h2Zm8 0h2Zm-8 1h2Zm8 0h2Zm-8 1h1Zm9 0h1Zm-11 2h1Zm13 0h1Zm-14 1h2Zm14 0h2Zm-14 1h1Zm15 0h1Z"/><path stroke="#0000E7" d="M11 16.5h2m6 0h2m-10 1h2m6 0h2m-10 1h2m6 0h2m-10 1h1m8 0h1m-12 2h1m12 0h1m-15 1h2m12 0h2m-16 1h1m14 0h1"/><path fill="#000" d="M6 22.5h2Zm18 0h2Zm-21 2h5Zm21 0h5Z"/><path stroke="#4A6B6B" d="M6 22.5h2m16 0h2m-23 2h5m16 0h5"/><path fill="#000" d="M10 22.5h12Zm-7 3h5Zm21 0h5Z"/><path stroke="#294A4A" d="M10 22.5h12m-19 3h5m16 0h5"/><path fill="#000" d="M11 24.5h10Zm-1 1h1Zm11 0h1Zm-12 1h2Zm3 0h8Zm9 0h2Zm-11 1h1Zm11 0h1Zm-11 1h1Zm11 0h1Zm-9 1h8Z"/><path stroke="#CEEFEF" d="M11 24.5h10m-11 1h1m10 0h1m-13 1h2m1 0h8m1 0h2m-13 1h1m10 0h1m-12 1h1m10 0h1m-10 1h8"/><path fill="#000" d="M9 25.5h1Zm3 0h8Zm10 0h1Zm-10 2h8Zm1 1h6Z"/><path stroke="#7B7B7B" d="M9 25.5h1m2 0h8m2 0h1m-11 2h8m-7 1h6"/></g></svg>