<svg width="100" height="100" viewBox="0 0 100 100" fill="none" xmlns="http://www.w3.org/2000/svg">
<path d="M46.875 6.25H53.125V68.75H46.875V6.25Z" fill="#FDE047"/>
<path d="M40.625 50H46.875V56.25H40.625V50Z" fill="#FDE047"/>
<path d="M59.375 12.5H65.625V68.75H59.375V12.5Z" fill="#FDE047"/>
<path d="M53.125 50H59.375V68.75H53.125V50Z" fill="#FDE047"/>
<path d="M53.125 6.25H59.375V31.25H53.125V6.25Z" fill="#FDE047"/>
<path d="M40.625 6.25H46.875V31.25H40.625V6.25Z" fill="#FDE047"/>
<path d="M34.375 6.25H40.625V18.75H34.375V6.25Z" fill="#FDE047"/>
<path d="M28.125 6.25H34.375V12.5H28.125V6.25Z" fill="#FDE047"/>
<path d="M65.625 12.5H71.875V31.25H65.625V12.5Z" fill="#FDE047"/>
<path d="M71.875 18.75H78.125V56.25H71.875V18.75Z" fill="#FDE047"/>
<path d="M65.625 50H71.875V62.5H65.625V50Z" fill="#FDE047"/>
<path d="M78.125 25H84.375V75H78.125V25Z" fill="#FDE047"/>
<path d="M84.375 37.5H90.625V62.5H84.375V37.5Z" fill="#FDE047"/>
<path d="M71.875 62.5H78.125V81.25H71.875V62.5Z" fill="#FDE047"/>
<path d="M65.625 68.75H71.875V87.5H65.625V68.75Z" fill="#FDE047"/>
<path d="M59.375 75H65.625V87.5H59.375V75Z" fill="#FDE047"/>
<path d="M34.375 75H59.375V93.75H34.375V75Z" fill="#FDE047"/>
<path d="M9.375 68.75H46.875V75H9.375V68.75Z" fill="#FDE047"/>
<path d="M15.625 75H34.375V81.25H15.625V75Z" fill="#FDE047"/>
<path d="M21.875 81.25H34.375V87.5H21.875V81.25Z" fill="#FDE047"/>
<path d="M21.875 62.5H40.625V68.75H21.875V62.5Z" fill="#FDE047"/>
<path d="M34.375 56.25H40.625V62.5H34.375V56.25Z" fill="#FDE047"/>
<path d="M21.875 0H28.125V12.5H21.875V0Z" fill="#00012F"/>
<path d="M28.125 0H59.375V6.25H28.125V0Z" fill="#00012F"/>
<path d="M28.125 12.5H34.375V18.75H28.125V12.5Z" fill="#00012F"/>
<path d="M34.375 18.75H40.625V31.25H34.375V18.75Z" fill="#00012F"/>
<path d="M40.625 31.25H46.875V50H40.625V31.25Z" fill="#00012F"/>
<path d="M53.125 31.25H59.375V50H53.125V31.25Z" fill="#00012F"/>
<path d="M65.625 31.25H71.875V50H65.625V31.25Z" fill="#00012F"/>
<path d="M34.375 50H40.625V56.25H34.375V50Z" fill="#00012F"/>
<path d="M40.625 56.25H46.875V68.75H40.625V56.25Z" fill="#00012F"/>
<path d="M46.875 68.75H65.625V75H46.875V68.75Z" fill="#00012F"/>
<path d="M65.625 62.5H71.875V68.75H65.625V62.5Z" fill="#00012F"/>
<path d="M71.875 56.25H78.125V62.5H71.875V56.25Z" fill="#00012F"/>
<path d="M21.875 56.25H34.375V62.5H21.875V56.25Z" fill="#00012F"/>
<path d="M3.125 62.5H21.875V68.75H3.125V62.5Z" fill="#00012F"/>
<path d="M3.125 68.75H9.375V75H3.125V68.75Z" fill="#00012F"/>
<path d="M9.375 75H15.625V81.25H9.375V75Z" fill="#00012F"/>
<path d="M15.625 81.25H21.875V87.5H15.625V81.25Z" fill="#00012F"/>
<path d="M21.875 87.5H34.375V93.75H21.875V87.5Z" fill="#00012F"/>
<path d="M34.375 93.75H59.375V100H34.375V93.75Z" fill="#00012F"/>
<path d="M59.375 87.5H71.875V93.75H59.375V87.5Z" fill="#00012F"/>
<path d="M71.875 81.25H78.125V87.5H71.875V81.25Z" fill="#00012F"/>
<path d="M78.125 75H84.375V81.25H78.125V75Z" fill="#00012F"/>
<path d="M84.375 62.5H90.625V75H84.375V62.5Z" fill="#00012F"/>
<path d="M90.625 37.5H96.875V62.5H90.625V37.5Z" fill="#00012F"/>
<path d="M84.375 25H90.625V37.5H84.375V25Z" fill="#00012F"/>
<path d="M78.125 18.75H84.375V25H78.125V18.75Z" fill="#00012F"/>
<path d="M71.875 12.5H78.125V18.75H71.875V12.5Z" fill="#00012F"/>
<path d="M59.375 6.25H71.875V12.5H59.375V6.25Z" fill="#00012F"/>
</svg>
