<svg width="16" height="16" viewBox="0 0 16 16" fill="none" xmlns="http://www.w3.org/2000/svg">
<path d="M3 0V2H4V3H5V5H6V8H5V9H3V10H0V12H1V13H2V14H3V15H5V16H9V15H11V14H12V13H13V12H14V10H15V6H14V4H13V3H12V2H11V1H9V0H3Z" fill="#FDE047"/>
<path d="M4 1V2H3V0H9V1H4Z" fill="black"/>
<rect x="9" y="1" width="2" height="1" fill="black"/>
<rect x="11" y="2" width="1" height="1" fill="black"/>
<rect x="12" y="3" width="1" height="1" fill="black"/>
<rect x="13" y="4" width="1" height="2" fill="black"/>
<rect x="14" y="6" width="1" height="4" fill="black"/>
<rect x="13" y="10" width="1" height="2" fill="black"/>
<rect x="12" y="12" width="1" height="1" fill="black"/>
<rect x="11" y="13" width="1" height="1" fill="black"/>
<rect x="9" y="14" width="2" height="1" fill="black"/>
<rect x="5" y="15" width="4" height="1" fill="black"/>
<rect x="3" y="14" width="2" height="1" fill="black"/>
<rect x="2" y="13" width="1" height="1" fill="black"/>
<rect x="1" y="12" width="1" height="1" fill="black"/>
<path d="M0 12H1V11H3V10H0V12Z" fill="black"/>
<rect x="3" y="9" width="2" height="1" fill="black"/>
<rect x="5" y="8" width="1" height="1" fill="black"/>
<rect x="6" y="5" width="1" height="3" fill="black"/>
<rect x="5" y="3" width="1" height="2" fill="black"/>
<rect x="4" y="2" width="1" height="1" fill="black"/>
<rect x="8" y="5" width="1" height="3" fill="#00012F"/>
<rect x="10" y="5" width="1" height="3" fill="#00012F"/>
<rect x="6" y="9" width="1" height="2" fill="#00012F"/>
<rect x="7" y="11" width="3" height="1" fill="#00012F"/>
<rect x="10" y="10" width="1" height="1" fill="#00012F"/>
<rect x="11" y="9" width="1" height="1" fill="#00012F"/>
</svg>
