<svg width="100" height="100" viewBox="0 0 100 100" fill="none" xmlns="http://www.w3.org/2000/svg">
<path d="M6.25 31.25H12.5V68.75H6.25V31.25Z" fill="#EF4444"/>
<path d="M12.5 68.75H18.75V81.25H12.5V68.75Z" fill="#EF4444"/>
<path d="M18.75 81.25H25V87.5H18.75V81.25Z" fill="#EF4444"/>
<path d="M25 87.5H37.5V93.75H25V87.5Z" fill="#EF4444"/>
<path d="M37.5 93.75H62.5V100H37.5V93.75Z" fill="#EF4444"/>
<path d="M62.5 87.5H75V93.75H62.5V87.5Z" fill="#EF4444"/>
<path d="M75 81.25H81.25V87.5H75V81.25Z" fill="#EF4444"/>
<path d="M81.25 68.75H87.5V81.25H81.25V68.75Z" fill="#EF4444"/>
<path d="M87.5 31.25H93.75V68.75H87.5V31.25Z" fill="#EF4444"/>
<path d="M81.25 18.75H87.5V31.25H81.25V18.75Z" fill="#EF4444"/>
<path d="M75 12.5H81.25V18.75H75V12.5Z" fill="#EF4444"/>
<path d="M62.5 6.25H75V12.5H62.5V6.25Z" fill="#EF4444"/>
<path d="M37.5 0H62.5V6.25H37.5V0Z" fill="#EF4444"/>
<path d="M25 6.25H37.5V12.5H25V6.25Z" fill="#EF4444"/>
<path d="M12.5 18.75H18.75V31.25H12.5V18.75Z" fill="#EF4444"/>
<path d="M18.75 12.5H25V18.75H18.75V12.5Z" fill="#EF4444"/>
<path d="M81.25 43.75H87.5V68.75H81.25V43.75Z" fill="#EF4444"/>
<path d="M81.25 31.25H87.5V43.75H81.25V31.25Z" fill="#F59E0B"/>
<path d="M75 31.25H81.25V43.75H75V31.25Z" fill="#F8F800"/>
<path d="M75 18.75H81.25V31.25H75V18.75Z" fill="#EAB308"/>
<path d="M68.75 12.5H75V18.75H68.75V12.5Z" fill="#EAB308"/>
<path d="M75 43.75H81.25V68.75H75V43.75Z" fill="#EAB308"/>
<path d="M56.25 25H62.5V43.75H56.25V25Z" fill="#EF4444"/>
<path d="M37.5 25H43.75V43.75H37.5V25Z" fill="#EF4444"/>
<path d="M31.25 50H37.5V62.5H31.25V50Z" fill="#EF4444"/>
<path d="M25 56.25H31.25V62.5H25V56.25Z" fill="#EF4444"/>
<path d="M37.5 62.5H43.75V68.75H37.5V62.5Z" fill="#EF4444"/>
<path d="M43.75 68.75H56.25V75H43.75V68.75Z" fill="#EF4444"/>
<path d="M56.25 62.5H62.5V68.75H56.25V62.5Z" fill="#EF4444"/>
<path d="M62.5 50H68.75V62.5H62.5V50Z" fill="#EF4444"/>
<path d="M68.75 56.25H75V62.5H68.75V56.25Z" fill="#EF4444"/>
<path d="M68.75 50H75V56.25H68.75V50Z" fill="#F8F800"/>
<path d="M62.5 62.5H75V68.75H62.5V62.5Z" fill="#F8F800"/>
<path d="M62.5 68.75H68.75V75H62.5V68.75Z" fill="#F8F800"/>
<path d="M56.25 68.75H62.5V75H56.25V68.75Z" fill="#F8F800"/>
<path d="M43.75 75H62.5V81.25H43.75V75Z" fill="#F8F800"/>
<path d="M37.5 87.5H62.5V93.75H37.5V87.5Z" fill="#EF4444"/>
<path d="M25 81.25H62.5V87.5H25V81.25Z" fill="#EAB308"/>
<path d="M18.75 68.75H25V81.25H18.75V68.75Z" fill="#EAB308"/>
<path d="M25 75H31.25V81.25H25V75Z" fill="#EAB308"/>
<path d="M12.5 62.5H18.75V68.75H12.5V62.5Z" fill="#EAB308"/>
<path d="M18.75 62.5H31.25V68.75H18.75V62.5Z" fill="#F8F800"/>
<path d="M12.5 37.5V31.25H15.625H18.75V37.5V62.5H12.5V37.5Z" fill="#FEF9C3"/>
<path d="M18.75 25H25V31.25H18.75V25Z" fill="#FEF9C3"/>
<path d="M25 18.75V12.5H28.2828H31.25V18.75V25H25H18.75V22.2222V18.75H25Z" fill="#FEF9C3"/>
<path d="M31.25 12.5H37.5V18.75H31.25V12.5Z" fill="#FEF9C3"/>
<path d="M43.75 6.25H56.25H62.5V9.09091V12.5H56.25H43.75H37.5V9.09091V6.25H43.75Z" fill="#FEF9C3"/>
<path d="M56.25 12.5H68.75V18.75H56.25V12.5Z" fill="#FEF9C3"/>
<path d="M50 18.75H62.5V25H50V18.75Z" fill="#FEF9C3"/>
<path d="M43.75 25H56.25V31.25H43.75V25Z" fill="#FEF9C3"/>
<path d="M43.75 31.25H50V37.5H43.75V31.25Z" fill="#FEF9C3"/>
<path d="M31.25 37.5H37.5V50H31.25V37.5Z" fill="#FEF9C3"/>
<path d="M25 43.75H31.25V56.25H25V43.75Z" fill="#FEF9C3"/>
<path d="M18.75 50H25V62.5H18.75V50Z" fill="#FEF9C3"/>
<path d="M37.5 75H43.75V81.25H37.5V75Z" fill="#FEF9C3"/>
<path d="M25 68.75H43.75V75H25V68.75Z" fill="#FEF9C3"/>
<path d="M31.25 62.5H37.5V68.75H31.25V62.5Z" fill="#FEF9C3"/>
<path d="M75 68.75H81.25V81.25H75V68.75Z" fill="#EF4444"/>
<path d="M62.5 81.25H75V87.5H62.5V81.25Z" fill="#EF4444"/>
<path d="M62.5 75H75V81.25H62.5V75Z" fill="#EAB308"/>
<path d="M68.75 68.75H75V75H68.75V68.75Z" fill="#EAB308"/>
<path d="M31.25 75H37.5V81.25H31.25V75Z" fill="#F8F800"/>
<path d="M68.75 18.75H75V50H68.75V18.75Z" fill="#FEF9C3"/>
<path d="M62.5 31.25H68.75V50H62.5V31.25Z" fill="#FEF9C3"/>
<path d="M56.25 43.75H62.5V62.5H56.25V43.75Z" fill="#FEF9C3"/>
<path d="M50 43.75H56.25V68.75H50V43.75Z" fill="#FEF9C3"/>
<path d="M43.75 50H50V68.75H43.75V50Z" fill="#FEF9C3"/>
<path d="M37.5 56.25H43.75V62.5H37.5V56.25Z" fill="#FEF9C3"/>
<path d="M37.5 43.75H43.75V56.25H37.5V43.75Z" fill="#F8F800"/>
<path d="M43.75 37.5H50V50H43.75V37.5Z" fill="#F8F800"/>
<path d="M50 31.25H56.25V43.75H50V31.25Z" fill="#F8F800"/>
<path d="M37.5 12.5H56.25V18.75H37.5V12.5Z" fill="#F8F800"/>
<path d="M31.25 18.75H50V25H31.25V18.75Z" fill="#F8F800"/>
<path d="M25 25H37.5V37.5H25V25Z" fill="#F8F800"/>
<path d="M25 37.5H31.25V43.75H25V37.5Z" fill="#F8F800"/>
<path d="M18.75 31.25H25V50H18.75V31.25Z" fill="#F8F800"/>
<path d="M62.5 18.75H68.75V31.25H62.5V18.75Z" fill="#F8F800"/>
</svg>
