<svg width="16" height="16" viewBox="0 0 16 16" fill="none" xmlns="http://www.w3.org/2000/svg">
<path d="M0 11V5H1.14286V3H2.28571V2H3.42857V1H5.71429V0H10.2857V1H12.5714V2H13.7143V3H14.8571V5H16V11H14.8571V13H13.7143V14H12.5714V15H10.2857V16H5.71429V15H3.42857V14H2.28571V13H1.14286V11H0Z" fill="#EF4444"/>
<path d="M1 5H2.16667V4H3.33333V3H4.5V2H6.83333V1H9.16667V2H12.6667V3H13.8333V5H15V11H13.8333V13H12.6667V14H10.3333V15H5.66667V14H3.33333V13H2.16667V11H1V5Z" fill="#F59E0B"/>
<path d="M2 10.5714V5.42857H3V4.57143H4V3.71429H5V2.85714H7V2H9V2.85714H12V3.71429H13V5.42857H14V10.5714H13V12.2857H12V13.1429H10V14H6V13.1429H4V12.2857H3V10.5714H2Z" fill="#F8F800"/>
<path d="M5 10.1429V5.85714H5.5V5.14286H6V4.42857H6.5V3.71429H7.5V3H8.5V3.71429H10V4.42857H10.5V5.85714H11V10.1429H10.5V11.5714H10V12.2857H9V13H7V12.2857H6V11.5714H5.5V10.1429H5Z" fill="#FEF9C3"/>
<path d="M5 9V8H6V10H4V9H5Z" fill="#EF4444"/>
<path d="M11 9V8H10V10H12V9H11Z" fill="#EF4444"/>
<rect x="6" y="10" width="1" height="1" fill="#EF4444"/>
<rect width="1" height="1" transform="matrix(-1 0 0 1 10 10)" fill="#EF4444"/>
<rect x="7" y="11" width="1" height="1" fill="#EF4444"/>
<rect width="1" height="1" transform="matrix(-1 0 0 1 9 11)" fill="#EF4444"/>
<path d="M6 7V4H7V7H6Z" fill="#EF4444"/>
<path d="M9 7V4H10V7H9Z" fill="#EF4444"/>
</svg>
